# WaveFront *.obj file (generated by Autodesk ATF)

mtllib Ventil.mtl

g Volumenkörper1

v -115.000000 -125.000000 -5.000000
v -115.000000 -125.000000 5.000000
v -115.000000 -115.000000 -5.000000
v -115.000000 -115.000000 0.000000
v -115.000000 -115.000000 3.000000
v -115.000000 -115.000000 5.000000
v -115.000000 115.000000 -5.000000
v -115.000000 115.000000 0.000000
v -115.000000 115.000000 3.000000
v -115.000000 115.000000 5.000000
v -115.000000 125.000000 -5.000000
v -115.000000 125.000000 5.000000
v 115.000000 -115.000000 -5.000000
v 115.000000 -115.000000 0.000000
v 115.000000 -115.000000 3.000000
v 115.000000 -115.000000 5.000000
v 115.000000 115.000000 -5.000000
v 115.000000 115.000000 0.000000
v 115.000000 115.000000 3.000000
v 115.000000 115.000000 5.000000
v 125.000000 -125.000000 -5.000000
v 125.000000 -125.000000 5.000000
v 125.000000 125.000000 -5.000000
v 125.000000 125.000000 5.000000
vt 0.000000 0.300000 0.000000
vt 23.000000 0.300000 0.000000
vt 23.000000 0.500000 0.000000
vt 0.000000 0.500000 0.000000
vt 0.000000 0.300000 0.000000
vt 23.000000 0.300000 0.000000
vt 23.000000 0.500000 0.000000
vt 0.000000 0.500000 0.000000
vt 23.000000 0.000000 0.000000
vt 0.000000 0.000000 0.000000
vt 0.000000 -0.500000 0.000000
vt 23.000000 -0.500000 0.000000
vt -11.000000 -11.500000 0.000000
vt -11.000000 11.500000 0.000000
vt 12.000000 11.500000 0.000000
vt 12.000000 12.500000 0.000000
vt -12.000000 12.500000 0.000000
vt -12.000000 -12.500000 0.000000
vt 12.000000 -12.500000 0.000000
vt 12.000000 -11.500000 0.000000
vt 23.000000 0.000000 0.000000
vt 0.000000 0.000000 0.000000
vt 0.000000 -0.500000 0.000000
vt 23.000000 -0.500000 0.000000
vt 24.000000 -0.500000 0.000000
vt 24.000000 0.500000 0.000000
vt 0.000000 0.500000 0.000000
vt 0.000000 -0.500000 0.000000
vt 25.000000 -0.500000 0.000000
vt 25.000000 0.500000 0.000000
vt 0.000000 0.500000 0.000000
vt 0.000000 -0.500000 0.000000
vt 24.000000 -0.500000 0.000000
vt 24.000000 0.500000 0.000000
vt 0.000000 0.500000 0.000000
vt 0.000000 -0.500000 0.000000
vt 0.000000 0.300000 0.000000
vt 23.000000 0.300000 0.000000
vt 23.000000 0.500000 0.000000
vt 0.000000 0.500000 0.000000
vt 23.000000 0.000000 0.000000
vt 0.000000 0.000000 0.000000
vt 0.000000 -0.500000 0.000000
vt 23.000000 -0.500000 0.000000
vt 11.000000 11.500000 0.000000
vt 11.000000 -11.500000 0.000000
vt -12.000000 -11.500000 0.000000
vt -12.000000 -12.500000 0.000000
vt 12.000000 -12.500000 0.000000
vt 12.000000 12.500000 0.000000
vt -12.000000 12.500000 0.000000
vt -12.000000 11.500000 0.000000
vt 0.000000 0.000000 0.000000
vt 23.000000 0.000000 0.000000
vt 23.000000 -0.500000 0.000000
vt 24.000000 -0.500000 0.000000
vt 24.000000 0.500000 0.000000
vt 23.000000 0.500000 0.000000
vt 23.000000 0.300000 0.000000
vt 0.000000 0.300000 0.000000
vt 0.000000 0.500000 0.000000
vt -1.000000 0.500000 0.000000
vt -1.000000 -0.500000 0.000000
vt 0.000000 -0.500000 0.000000
vt -11.500000 -11.500000 0.000000
vt 11.500000 -11.500000 0.000000
vt 11.500000 11.500000 0.000000
vt -11.500000 11.500000 0.000000
vt -11.500000 -11.500000 0.000000
vt 11.500000 -11.500000 0.000000
vt 11.500000 11.500000 0.000000
vt -11.500000 11.500000 0.000000
vn 0.000000 -0.100000 0.000000
vn 0.000000 -0.100000 0.000000
vn 0.000000 -0.100000 0.000000
vn 0.000000 -0.100000 0.000000
vn -0.100000 0.000000 0.000000
vn -0.100000 0.000000 0.000000
vn -0.100000 0.000000 0.000000
vn -0.100000 0.000000 0.000000
vn 0.000000 0.100000 0.000000
vn 0.000000 0.100000 0.000000
vn 0.000000 0.100000 0.000000
vn 0.000000 0.100000 0.000000
vn 0.000000 0.000000 -0.100000
vn 0.000000 0.000000 -0.100000
vn 0.000000 0.000000 -0.100000
vn 0.000000 0.000000 -0.100000
vn 0.000000 0.000000 -0.100000
vn 0.000000 0.000000 -0.100000
vn 0.000000 0.000000 -0.100000
vn 0.000000 0.000000 -0.100000
vn 0.000000 -0.100000 0.000000
vn 0.000000 -0.100000 0.000000
vn 0.000000 -0.100000 0.000000
vn 0.000000 -0.100000 0.000000
vn 0.000000 0.100000 0.000000
vn 0.000000 0.100000 0.000000
vn 0.000000 0.100000 0.000000
vn 0.000000 0.100000 0.000000
vn 0.100000 0.000000 0.000000
vn 0.100000 0.000000 0.000000
vn 0.100000 0.000000 0.000000
vn 0.100000 0.000000 0.000000
vn 0.000000 -0.100000 0.000000
vn 0.000000 -0.100000 0.000000
vn 0.000000 -0.100000 0.000000
vn 0.000000 -0.100000 0.000000
vn 0.000000 0.100000 0.000000
vn 0.000000 0.100000 0.000000
vn 0.000000 0.100000 0.000000
vn 0.000000 0.100000 0.000000
vn -0.100000 0.000000 0.000000
vn -0.100000 0.000000 0.000000
vn -0.100000 0.000000 0.000000
vn -0.100000 0.000000 0.000000
vn 0.000000 0.000000 0.100000
vn 0.000000 0.000000 0.100000
vn 0.000000 0.000000 0.100000
vn 0.000000 0.000000 0.100000
vn 0.000000 0.000000 0.100000
vn 0.000000 0.000000 0.100000
vn 0.000000 0.000000 0.100000
vn 0.000000 0.000000 0.100000
vn -0.100000 0.000000 0.000000
vn -0.100000 0.000000 0.000000
vn -0.100000 0.000000 0.000000
vn -0.100000 0.000000 0.000000
vn -0.100000 0.000000 0.000000
vn -0.100000 0.000000 0.000000
vn -0.100000 0.000000 0.000000
vn -0.100000 0.000000 0.000000
vn -0.100000 0.000000 0.000000
vn -0.100000 0.000000 0.000000
vn -0.100000 0.000000 0.000000
vn -0.100000 0.000000 0.000000
vn 0.000000 0.000000 0.100000
vn 0.000000 0.000000 0.100000
vn 0.000000 0.000000 0.100000
vn 0.000000 0.000000 0.100000
vn 0.000000 0.000000 -0.100000
vn 0.000000 0.000000 -0.100000
vn 0.000000 0.000000 -0.100000
vn 0.000000 0.000000 -0.100000
usemtl 191,191,191
f 9/1/1 19/2/2 10/4/4
f 10/4/4 19/2/2 20/3/3
f 19/5/5 15/6/6 20/8/8
f 20/8/8 15/6/6 16/7/7
f 4/9/9 14/10/10 3/12/12
f 3/12/12 14/10/10 13/11/11
f 17/14/14 21/18/18 13/13/13
f 13/13/13 21/18/18 1/19/19
f 13/13/13 1/19/19 3/20/20
f 7/15/15 11/16/16 17/14/14
f 17/14/14 11/16/16 23/17/17
f 17/14/14 23/17/17 21/18/18
f 18/21/21 8/22/22 17/24/24
f 17/24/24 8/22/22 7/23/23
f 12/26/26 24/27/27 11/25/25
f 11/25/25 24/27/27 23/28/28
f 24/30/30 22/31/31 23/29/29
f 23/29/29 22/31/31 21/32/32
f 22/34/34 2/35/35 21/33/33
f 21/33/33 2/35/35 1/36/36
f 15/37/37 5/38/38 16/40/40
f 16/40/40 5/38/38 6/39/39
f 14/41/41 18/42/42 13/44/44
f 13/44/44 18/42/42 17/43/43
f 16/46/46 22/49/49 20/45/45
f 20/45/45 22/49/49 24/50/50
f 20/45/45 24/50/50 12/51/51
f 6/47/47 2/48/48 16/46/46
f 16/46/46 2/48/48 22/49/49
f 12/51/51 10/52/52 20/45/45
f 4/54/54 9/60/60 8/53/53
f 8/53/53 9/60/60 12/62/62
f 8/53/53 12/62/62 11/63/63
f 3/55/55 1/56/56 4/54/54
f 4/54/54 1/56/56 2/57/57
f 4/54/54 2/57/57 5/59/59
f 5/59/59 2/57/57 6/58/58
f 5/59/59 9/60/60 4/54/54
f 9/60/60 10/61/61 12/62/62
f 11/63/63 7/64/64 8/53/53
f 5/65/65 15/66/66 9/68/68
f 9/68/68 15/66/66 19/67/67
f 14/69/69 4/70/70 18/72/72
f 18/72/72 4/70/70 8/71/71

# 24 vertices
# 72 texture params
# 72 normals
# 44 facets

# 1 groups
