# WaveFront *.obj file (generated by Autodesk ATF)

mtllib Finger_unten.mtl

g Volumenkörper1

v -12.057713 -45.000000 -100.000000
v -12.057713 -45.000000 -90.000000
v -12.057713 45.000000 -100.000000
v -12.057713 45.000000 -90.000000
v -9.108536 -39.453404 -90.000000
v -9.108536 39.453404 -90.000000
v -8.689461 -38.582330 -100.000000
v -8.689461 -38.582330 -90.000000
v -8.689461 38.582330 -100.000000
v -8.689461 38.582330 -90.000000
v -6.553453 -33.714592 -90.000000
v -6.553453 33.714592 -90.000000
v -5.848538 -31.914439 -100.000000
v -5.848538 -31.914439 -90.000000
v -5.848538 31.914439 -100.000000
v -5.848538 31.914439 -90.000000
v -4.404913 -27.811530 -90.000000
v -4.404913 27.811530 -90.000000
v -3.553370 -25.039573 -100.000000
v -3.553370 -25.039573 -90.000000
v -3.553370 25.039573 -100.000000
v -3.553370 25.039573 -90.000000
v -3.397460 -50.000000 -100.000000
v -3.397460 -50.000000 -90.000000
v -3.397460 50.000000 -100.000000
v -3.397460 50.000000 -90.000000
v -2.673385 -21.772971 -90.000000
v -2.673385 21.772971 -90.000000
v -1.818841 -18.002312 -100.000000
v -1.818841 -18.002312 -90.000000
v -1.818841 18.002312 -100.000000
v -1.818841 18.002312 -90.000000
v -1.367302 -15.628335 -90.000000
v -1.367302 15.628335 -90.000000
v -0.656201 -10.848302 -100.000000
v -0.656201 -10.848302 -90.000000
v -0.656201 10.848302 -100.000000
v -0.656201 10.848302 -90.000000
v -0.493029 -9.407561 -90.000000
v -0.493029 9.407561 -90.000000
v -0.357074 -44.318686 -100.000000
v -0.357074 -44.318686 -90.000000
v -0.357074 44.318686 -100.000000
v -0.357074 44.318686 -90.000000
v -0.072990 -3.623935 -100.000000
v -0.072990 -3.623935 -90.000000
v -0.072990 3.623935 -100.000000
v -0.072990 3.623935 -90.000000
v -0.054826 -3.140955 -90.000000
v -0.054826 3.140955 -90.000000
v 2.311103 -38.453352 -100.000000
v 2.311103 -38.453352 -90.000000
v 2.311103 38.453352 -100.000000
v 2.311103 38.453352 -90.000000
v 4.595992 -32.428355 -100.000000
v 4.595992 -32.428355 -90.000000
v 4.595992 32.428355 -100.000000
v 4.595992 32.428355 -90.000000
v 6.488106 -26.268713 -100.000000
v 6.488106 -26.268713 -90.000000
v 6.488106 26.268713 -100.000000
v 6.488106 26.268713 -90.000000
v 7.979590 -20.000000 -100.000000
v 7.979590 -20.000000 -90.000000
v 7.979590 20.000000 -100.000000
v 7.979590 20.000000 -90.000000
v 50.000000 -20.000000 -100.000000
v 50.000000 -20.000000 -90.000000
v 50.000000 20.000000 -100.000000
v 50.000000 20.000000 -90.000000
vt -0.205771 6.500000 0.000000
vt 0.131054 5.858233 0.000000
vt 0.415146 5.191444 0.000000
vt 0.644663 4.503957 0.000000
vt 0.818116 3.800231 0.000000
vt 0.934380 3.084830 0.000000
vt 0.992701 2.362393 0.000000
vt 0.992701 1.637607 0.000000
vt 0.934380 0.915170 0.000000
vt 0.818116 0.199769 0.000000
vt 0.644663 -0.503957 0.000000
vt 0.415146 -1.191444 0.000000
vt 0.131054 -1.858233 0.000000
vt -0.205771 -2.500000 0.000000
vt 0.660254 -3.000000 0.000000
vt 0.964293 -2.431869 0.000000
vt 1.231110 -1.845335 0.000000
vt 1.459599 -1.242836 0.000000
vt 1.648811 -0.626871 0.000000
vt 1.797959 0.000000 0.000000
vt 6.000000 0.000000 0.000000
vt 6.000000 4.000000 0.000000
vt 1.797959 4.000000 0.000000
vt 1.648811 4.626872 0.000000
vt 1.459599 5.242836 0.000000
vt 1.231110 5.845335 0.000000
vt 0.964293 6.431869 0.000000
vt 0.660254 7.000000 0.000000
vt 1.000000 1.000000 0.000000
vt 0.000000 1.000000 0.000000
vt 0.000000 0.000000 0.000000
vt 1.000000 0.000000 0.000000
vt -1.000000 0.000000 0.000000
vt -1.000000 -0.644482 0.000000
vt -1.000000 -1.288963 0.000000
vt -1.000000 -1.933445 0.000000
vt -1.000000 -2.577927 0.000000
vt -1.000000 -3.222409 0.000000
vt -0.000000 -3.222409 0.000000
vt -0.000000 -2.577927 0.000000
vt -0.000000 -1.933445 0.000000
vt -0.000000 -1.288963 0.000000
vt -0.000000 -0.644482 0.000000
vt -0.000000 0.000000 0.000000
vt 1.000000 1.000000 0.000000
vt 0.000000 1.000000 0.000000
vt 0.000000 0.000000 0.000000
vt 1.000000 0.000000 0.000000
vt -1.000000 -7.249567 0.000000
vt -1.000000 -7.894049 0.000000
vt -1.000000 -8.538530 0.000000
vt -1.000000 -9.183012 0.000000
vt -1.000000 -9.827494 0.000000
vt -1.000000 -10.471975 0.000000
vt -0.000000 -10.471975 0.000000
vt -0.000000 -9.827494 0.000000
vt -0.000000 -9.183012 0.000000
vt -0.000000 -8.538530 0.000000
vt -0.000000 -7.894049 0.000000
vt -0.000000 -7.249567 0.000000
vt 1.000000 18.849556 0.000000
vt 1.000000 19.574539 0.000000
vt 1.000000 20.299522 0.000000
vt 1.000000 21.024504 0.000000
vt 1.000000 21.749489 0.000000
vt 1.000000 22.474470 0.000000
vt 1.000000 23.199453 0.000000
vt 1.000000 23.924435 0.000000
vt 1.000000 24.649420 0.000000
vt 1.000000 25.374403 0.000000
vt 1.000000 26.099384 0.000000
vt 1.000000 26.824369 0.000000
vt 1.000000 27.549351 0.000000
vt 1.000000 28.274334 0.000000
vt 0.000000 28.274334 0.000000
vt 0.000000 27.549351 0.000000
vt 0.000000 26.824369 0.000000
vt 0.000000 26.099384 0.000000
vt 0.000000 25.374403 0.000000
vt 0.000000 24.649420 0.000000
vt 0.000000 23.924435 0.000000
vt 0.000000 23.199453 0.000000
vt 0.000000 22.474470 0.000000
vt 0.000000 21.749489 0.000000
vt 0.000000 21.024504 0.000000
vt 0.000000 20.299522 0.000000
vt 0.000000 19.574539 0.000000
vt 0.000000 18.849556 0.000000
vt 5.205771 -2.500000 0.000000
vt 4.910853 -1.945340 0.000000
vt 4.655345 -1.371459 0.000000
vt 4.440491 -0.781153 0.000000
vt 4.267338 -0.177297 0.000000
vt 4.136730 0.437166 0.000000
vt 4.049303 1.059244 0.000000
vt 4.005483 1.685905 0.000000
vt 4.005483 2.314095 0.000000
vt 4.049303 2.940756 0.000000
vt 4.136730 3.562834 0.000000
vt 4.267338 4.177297 0.000000
vt 4.440491 4.781153 0.000000
vt 4.655345 5.371459 0.000000
vt 4.910853 5.945340 0.000000
vt 5.205771 6.500000 0.000000
vt 4.339746 7.000000 0.000000
vt 4.035707 6.431869 0.000000
vt 3.768890 5.845335 0.000000
vt 3.540401 5.242836 0.000000
vt 3.351189 4.626872 0.000000
vt 3.202041 4.000000 0.000000
vt -1.000000 4.000000 0.000000
vt -1.000000 0.000000 0.000000
vt 3.202041 0.000000 0.000000
vt 3.351189 -0.626871 0.000000
vt 3.540401 -1.242836 0.000000
vt 3.768890 -1.845335 0.000000
vt 4.035707 -2.431869 0.000000
vt 4.339746 -3.000000 0.000000
vt -6.000000 0.797959 0.000000
vt -6.000000 5.000000 0.000000
vt -7.000000 5.000000 0.000000
vt -7.000000 0.797959 0.000000
vt 8.000000 5.000000 0.000000
vt 8.000000 0.797959 0.000000
vt 9.000000 0.797959 0.000000
vt 9.000000 5.000000 0.000000
vt 1.000000 0.000000 0.000000
vt 1.000000 4.000000 0.000000
vt 0.000000 4.000000 0.000000
vt 0.000000 0.000000 0.000000
vn 0.000000 0.000000 -0.100000
vn 0.000000 0.000000 -0.100000
vn 0.000000 0.000000 -0.100000
vn 0.000000 0.000000 -0.100000
vn 0.000000 0.000000 -0.100000
vn 0.000000 0.000000 -0.100000
vn 0.000000 0.000000 -0.100000
vn 0.000000 0.000000 -0.100000
vn 0.000000 0.000000 -0.100000
vn 0.000000 0.000000 -0.100000
vn 0.000000 0.000000 -0.100000
vn 0.000000 0.000000 -0.100000
vn 0.000000 0.000000 -0.100000
vn 0.000000 0.000000 -0.100000
vn 0.000000 0.000000 -0.100000
vn 0.000000 0.000000 -0.100000
vn 0.000000 0.000000 -0.100000
vn 0.000000 0.000000 -0.100000
vn 0.000000 0.000000 -0.100000
vn 0.000000 0.000000 -0.100000
vn 0.000000 0.000000 -0.100000
vn 0.000000 0.000000 -0.100000
vn 0.000000 0.000000 -0.100000
vn 0.000000 0.000000 -0.100000
vn 0.000000 0.000000 -0.100000
vn 0.000000 0.000000 -0.100000
vn 0.000000 0.000000 -0.100000
vn 0.000000 0.000000 -0.100000
vn -0.050000 0.086603 0.000000
vn -0.050000 0.086603 0.000000
vn -0.050000 0.086603 0.000000
vn -0.050000 0.086603 0.000000
vn 0.086603 0.050000 0.000000
vn 0.089643 0.044319 0.000000
vn 0.092311 0.038453 0.000000
vn 0.094596 0.032428 0.000000
vn 0.096488 0.026269 0.000000
vn 0.097980 0.020000 0.000000
vn 0.097980 0.020000 0.000000
vn 0.096488 0.026269 0.000000
vn 0.094596 0.032428 0.000000
vn 0.092311 0.038453 0.000000
vn 0.089643 0.044319 0.000000
vn 0.086603 0.050000 0.000000
vn -0.050000 -0.086603 0.000000
vn -0.050000 -0.086603 0.000000
vn -0.050000 -0.086603 0.000000
vn -0.050000 -0.086603 0.000000
vn 0.097980 -0.020000 0.000000
vn 0.096488 -0.026269 0.000000
vn 0.094596 -0.032428 0.000000
vn 0.092311 -0.038453 0.000000
vn 0.089643 -0.044319 0.000000
vn 0.086603 -0.050000 0.000000
vn 0.086603 -0.050000 0.000000
vn 0.089643 -0.044319 0.000000
vn 0.092311 -0.038453 0.000000
vn 0.094596 -0.032428 0.000000
vn 0.096488 -0.026269 0.000000
vn 0.097980 -0.020000 0.000000
vn -0.086603 0.050000 0.000000
vn -0.090345 0.042869 0.000000
vn -0.093502 0.035460 0.000000
vn -0.096052 0.027822 0.000000
vn -0.097979 0.020003 0.000000
vn -0.099271 0.012054 0.000000
vn -0.099919 0.004027 0.000000
vn -0.099919 -0.004027 0.000000
vn -0.099271 -0.012054 0.000000
vn -0.097979 -0.020003 0.000000
vn -0.096052 -0.027822 0.000000
vn -0.093502 -0.035460 0.000000
vn -0.090345 -0.042869 0.000000
vn -0.086603 -0.050000 0.000000
vn -0.086603 -0.050000 0.000000
vn -0.090345 -0.042869 0.000000
vn -0.093502 -0.035460 0.000000
vn -0.096052 -0.027822 0.000000
vn -0.097979 -0.020003 0.000000
vn -0.099271 -0.012054 0.000000
vn -0.099919 -0.004027 0.000000
vn -0.099919 0.004027 0.000000
vn -0.099271 0.012054 0.000000
vn -0.097979 0.020003 0.000000
vn -0.096052 0.027822 0.000000
vn -0.093502 0.035460 0.000000
vn -0.090345 0.042869 0.000000
vn -0.086603 0.050000 0.000000
vn 0.000000 0.000000 0.100000
vn 0.000000 0.000000 0.100000
vn 0.000000 0.000000 0.100000
vn 0.000000 0.000000 0.100000
vn 0.000000 0.000000 0.100000
vn 0.000000 0.000000 0.100000
vn 0.000000 0.000000 0.100000
vn 0.000000 0.000000 0.100000
vn 0.000000 0.000000 0.100000
vn 0.000000 0.000000 0.100000
vn 0.000000 0.000000 0.100000
vn 0.000000 0.000000 0.100000
vn 0.000000 0.000000 0.100000
vn 0.000000 0.000000 0.100000
vn 0.000000 0.000000 0.100000
vn 0.000000 0.000000 0.100000
vn 0.000000 0.000000 0.100000
vn 0.000000 0.000000 0.100000
vn 0.000000 0.000000 0.100000
vn 0.000000 0.000000 0.100000
vn 0.000000 0.000000 0.100000
vn 0.000000 0.000000 0.100000
vn 0.000000 0.000000 0.100000
vn 0.000000 0.000000 0.100000
vn 0.000000 0.000000 0.100000
vn 0.000000 0.000000 0.100000
vn 0.000000 0.000000 0.100000
vn 0.000000 0.000000 0.100000
vn 0.000000 0.000000 0.100000
vn 0.000000 0.000000 0.100000
vn 0.000000 0.100000 0.000000
vn 0.000000 0.100000 0.000000
vn 0.000000 0.100000 0.000000
vn 0.000000 0.100000 0.000000
vn 0.000000 -0.100000 0.000000
vn 0.000000 -0.100000 0.000000
vn 0.000000 -0.100000 0.000000
vn 0.000000 -0.100000 0.000000
vn 0.100000 0.000000 0.000000
vn 0.100000 0.000000 0.000000
vn 0.100000 0.000000 0.000000
vn 0.100000 0.000000 0.000000
usemtl 191,191,191
f 1/1/1 7/2/2 23/28/28
f 23/28/28 7/2/2 41/27/27
f 41/27/27 7/2/2 13/3/3
f 41/27/27 13/3/3 51/26/26
f 51/26/26 13/3/3 19/4/4
f 51/26/26 19/4/4 55/25/25
f 55/25/25 19/4/4 59/24/24
f 59/24/24 19/4/4 29/5/5
f 59/24/24 29/5/5 63/23/23
f 63/23/23 29/5/5 35/6/6
f 63/23/23 35/6/6 45/7/7
f 45/7/7 47/8/8 63/23/23
f 63/23/23 47/8/8 65/20/20
f 63/23/23 65/20/20 69/21/21
f 47/8/8 37/9/9 65/20/20
f 65/20/20 37/9/9 31/10/10
f 65/20/20 31/10/10 61/19/19
f 61/19/19 31/10/10 21/11/11
f 61/19/19 21/11/11 57/18/18
f 57/18/18 21/11/11 53/17/17
f 53/17/17 21/11/11 15/12/12
f 53/17/17 15/12/12 43/16/16
f 43/16/16 15/12/12 9/13/13
f 43/16/16 9/13/13 25/15/15
f 25/15/15 9/13/13 3/14/14
f 69/21/21 67/22/22 63/23/23
f 4/29/29 26/30/30 3/32/32
f 3/32/32 26/30/30 25/31/31
f 25/44/44 26/33/33 43/43/43
f 43/43/43 26/33/33 44/34/34
f 43/43/43 44/34/34 54/35/35
f 43/43/43 54/35/35 53/42/42
f 53/42/42 54/35/35 58/36/36
f 53/42/42 58/36/36 57/41/41
f 57/41/41 58/36/36 62/37/37
f 57/41/41 62/37/37 61/40/40
f 61/40/40 62/37/37 66/38/38
f 61/40/40 66/38/38 65/39/39
f 24/45/45 2/46/46 23/48/48
f 23/48/48 2/46/46 1/47/47
f 64/49/49 60/50/50 63/60/60
f 63/60/60 60/50/50 59/59/59
f 59/59/59 60/50/50 55/58/58
f 55/58/58 60/50/50 56/51/51
f 55/58/58 56/51/51 52/52/52
f 55/58/58 52/52/52 51/57/57
f 51/57/57 52/52/52 42/53/53
f 51/57/57 42/53/53 41/56/56
f 41/56/56 42/53/53 24/54/54
f 41/56/56 24/54/54 23/55/55
f 2/61/61 8/62/62 1/88/88
f 1/88/88 8/62/62 7/87/87
f 7/87/87 8/62/62 14/63/63
f 7/87/87 14/63/63 13/86/86
f 13/86/86 14/63/63 20/64/64
f 13/86/86 20/64/64 19/85/85
f 19/85/85 20/64/64 30/65/65
f 19/85/85 30/65/65 29/84/84
f 29/84/84 30/65/65 36/66/66
f 29/84/84 36/66/66 35/83/83
f 35/83/83 36/66/66 46/67/67
f 35/83/83 46/67/67 45/82/82
f 45/82/82 46/67/67 48/68/68
f 45/82/82 48/68/68 47/81/81
f 47/81/81 48/68/68 38/69/69
f 47/81/81 38/69/69 37/80/80
f 37/80/80 38/69/69 32/70/70
f 37/80/80 32/70/70 31/79/79
f 31/79/79 32/70/70 22/71/71
f 31/79/79 22/71/71 21/78/78
f 21/78/78 22/71/71 16/72/72
f 21/78/78 16/72/72 15/77/77
f 15/77/77 16/72/72 10/73/73
f 15/77/77 10/73/73 9/76/76
f 9/76/76 10/73/73 3/75/75
f 3/75/75 10/73/73 4/74/74
f 4/89/89 6/90/90 26/118/118
f 26/118/118 6/90/90 44/117/117
f 44/117/117 6/90/90 12/91/91
f 44/117/117 12/91/91 54/116/116
f 54/116/116 12/91/91 18/92/92
f 54/116/116 18/92/92 58/115/115
f 58/115/115 18/92/92 28/93/93
f 58/115/115 28/93/93 62/114/114
f 62/114/114 28/93/93 34/94/94
f 62/114/114 34/94/94 66/113/113
f 66/113/113 34/94/94 40/95/95
f 66/113/113 40/95/95 50/96/96
f 66/113/113 50/96/96 64/110/110
f 64/110/110 50/96/96 49/97/97
f 64/110/110 49/97/97 39/98/98
f 39/98/98 33/99/99 64/110/110
f 64/110/110 33/99/99 60/109/109
f 60/109/109 33/99/99 27/100/100
f 60/109/109 27/100/100 56/108/108
f 56/108/108 27/100/100 17/101/101
f 56/108/108 17/101/101 52/107/107
f 52/107/107 17/101/101 11/102/102
f 52/107/107 11/102/102 42/106/106
f 42/106/106 11/102/102 5/103/103
f 42/106/106 5/103/103 24/105/105
f 24/105/105 5/103/103 2/104/104
f 68/111/111 70/112/112 64/110/110
f 64/110/110 70/112/112 66/113/113
f 70/120/120 69/121/121 66/119/119
f 66/119/119 69/121/121 65/122/122
f 64/124/124 63/125/125 68/123/123
f 68/123/123 63/125/125 67/126/126
f 68/128/128 67/129/129 70/127/127
f 70/127/127 67/129/129 69/130/130

# 70 vertices
# 130 texture params
# 130 normals
# 110 facets

# 1 groups
