# WaveFront *.obj file (generated by Autodesk ATF)

mtllib Finger.mtl

g Volumenkörper1

v -12.057713 -45.000000 -100.000000
v -12.057713 -45.000000 -90.000000
v -12.057713 45.000000 -100.000000
v -12.057713 45.000000 -90.000000
v -8.689461 -38.582330 -100.000000
v -8.689461 -38.582330 -90.000000
v -8.689461 38.582330 -100.000000
v -8.689461 38.582330 -90.000000
v -5.848538 -31.914439 -100.000000
v -5.848538 -31.914439 -90.000000
v -5.848538 31.914439 -100.000000
v -5.848538 31.914439 -90.000000
v -3.553370 -25.039573 -100.000000
v -3.553370 -25.039573 -90.000000
v -3.553370 25.039573 -100.000000
v -3.553370 25.039573 -90.000000
v -3.397460 -50.000000 -100.000000
v -3.397460 -50.000000 -90.000000
v -3.397460 50.000000 -100.000000
v -3.397460 50.000000 -90.000000
v -1.818841 -18.002312 -100.000000
v -1.818841 -18.002312 -90.000000
v -1.818841 18.002312 -100.000000
v -1.818841 18.002312 -90.000000
v -0.656201 -10.848302 -100.000000
v -0.656201 -10.848302 -90.000000
v -0.656201 10.848302 -100.000000
v -0.656201 10.848302 -90.000000
v -0.357074 -44.318686 -100.000000
v -0.357074 -44.318686 -90.000000
v -0.357074 44.318686 -100.000000
v -0.357074 44.318686 -90.000000
v -0.072990 -3.623935 -100.000000
v -0.072990 -3.623935 -90.000000
v -0.072990 3.623935 -100.000000
v -0.072990 3.623935 -90.000000
v 0.000000 -20.000000 -30.000000
v 0.000000 -20.000000 -10.000000
v 0.000000 -15.000000 -5.000000
v 0.000000 -15.000000 0.000000
v 0.000000 -10.000000 -10.000000
v 0.000000 -10.000000 -5.000000
v 0.000000 10.000000 -10.000000
v 0.000000 10.000000 -5.000000
v 0.000000 15.000000 -5.000000
v 0.000000 15.000000 0.000000
v 0.000000 20.000000 -30.000000
v 0.000000 20.000000 -10.000000
v 2.311103 -38.453352 -100.000000
v 2.311103 -38.453352 -90.000000
v 2.311103 38.453352 -100.000000
v 2.311103 38.453352 -90.000000
v 4.595992 -32.428355 -100.000000
v 4.595992 -32.428355 -90.000000
v 4.595992 32.428355 -100.000000
v 4.595992 32.428355 -90.000000
v 6.488106 -26.268713 -100.000000
v 6.488106 -26.268713 -90.000000
v 6.488106 26.268713 -100.000000
v 6.488106 26.268713 -90.000000
v 7.979590 -20.000000 -100.000000
v 7.979590 -20.000000 -90.000000
v 7.979590 20.000000 -100.000000
v 7.979590 20.000000 -90.000000
v 10.000000 -20.000000 -20.000000
v 10.000000 -20.000000 -10.000000
v 10.000000 -15.000000 -5.000000
v 10.000000 -15.000000 0.000000
v 10.000000 -10.000000 -10.000000
v 10.000000 -10.000000 -5.000000
v 10.000000 10.000000 -10.000000
v 10.000000 10.000000 -5.000000
v 10.000000 15.000000 -5.000000
v 10.000000 15.000000 0.000000
v 10.000000 20.000000 -20.000000
v 10.000000 20.000000 -10.000000
v 40.000000 -20.000000 -90.000000
v 40.000000 -20.000000 -30.000000
v 40.000000 20.000000 -90.000000
v 40.000000 20.000000 -30.000000
v 50.000000 -20.000000 -100.000000
v 50.000000 -20.000000 -20.000000
v 50.000000 20.000000 -100.000000
v 50.000000 20.000000 -20.000000
vt -0.205771 6.500000 0.000000
vt 0.131054 5.858233 0.000000
vt 0.415146 5.191444 0.000000
vt 0.644663 4.503957 0.000000
vt 0.818116 3.800231 0.000000
vt 0.934380 3.084830 0.000000
vt 0.992701 2.362393 0.000000
vt 0.992701 1.637607 0.000000
vt 0.934380 0.915170 0.000000
vt 0.818116 0.199769 0.000000
vt 0.644663 -0.503957 0.000000
vt 0.415146 -1.191444 0.000000
vt 0.131054 -1.858233 0.000000
vt -0.205771 -2.500000 0.000000
vt 0.660254 -3.000000 0.000000
vt 0.964293 -2.431869 0.000000
vt 1.231110 -1.845335 0.000000
vt 1.459599 -1.242836 0.000000
vt 1.648811 -0.626871 0.000000
vt 1.797959 0.000000 0.000000
vt 6.000000 0.000000 0.000000
vt 6.000000 4.000000 0.000000
vt 1.797959 4.000000 0.000000
vt 1.648811 4.626872 0.000000
vt 1.459599 5.242836 0.000000
vt 1.231110 5.845335 0.000000
vt 0.964293 6.431869 0.000000
vt 0.660254 7.000000 0.000000
vt 1.000000 1.000000 0.000000
vt 0.000000 1.000000 0.000000
vt 0.000000 0.000000 0.000000
vt 1.000000 0.000000 0.000000
vt -1.000000 0.000000 0.000000
vt -1.000000 -0.644482 0.000000
vt -1.000000 -1.288963 0.000000
vt -1.000000 -1.933445 0.000000
vt -1.000000 -2.577927 0.000000
vt -1.000000 -3.222409 0.000000
vt -0.000000 -3.222409 0.000000
vt -0.000000 -2.577927 0.000000
vt -0.000000 -1.933445 0.000000
vt -0.000000 -1.288963 0.000000
vt -0.000000 -0.644482 0.000000
vt -0.000000 0.000000 0.000000
vt 1.000000 1.000000 0.000000
vt 0.000000 1.000000 0.000000
vt 0.000000 0.000000 0.000000
vt 1.000000 0.000000 0.000000
vt -1.000000 -7.249567 0.000000
vt -1.000000 -7.894049 0.000000
vt -1.000000 -8.538530 0.000000
vt -1.000000 -9.183012 0.000000
vt -1.000000 -9.827494 0.000000
vt -1.000000 -10.471975 0.000000
vt -0.000000 -10.471975 0.000000
vt -0.000000 -9.827494 0.000000
vt -0.000000 -9.183012 0.000000
vt -0.000000 -8.538530 0.000000
vt -0.000000 -7.894049 0.000000
vt -0.000000 -7.249567 0.000000
vt 1.000000 18.849556 0.000000
vt 1.000000 19.574539 0.000000
vt 1.000000 20.299522 0.000000
vt 1.000000 21.024504 0.000000
vt 1.000000 21.749489 0.000000
vt 1.000000 22.474470 0.000000
vt 1.000000 23.199453 0.000000
vt 1.000000 23.924435 0.000000
vt 1.000000 24.649420 0.000000
vt 1.000000 25.374403 0.000000
vt 1.000000 26.099384 0.000000
vt 1.000000 26.824369 0.000000
vt 1.000000 27.549351 0.000000
vt 1.000000 28.274334 0.000000
vt 0.000000 28.274334 0.000000
vt 0.000000 27.549351 0.000000
vt 0.000000 26.824369 0.000000
vt 0.000000 26.099384 0.000000
vt 0.000000 25.374403 0.000000
vt 0.000000 24.649420 0.000000
vt 0.000000 23.924435 0.000000
vt 0.000000 23.199453 0.000000
vt 0.000000 22.474470 0.000000
vt 0.000000 21.749489 0.000000
vt 0.000000 21.024504 0.000000
vt 0.000000 20.299522 0.000000
vt 0.000000 19.574539 0.000000
vt 0.000000 18.849556 0.000000
vt -7.000000 0.797959 0.000000
vt -6.000000 0.797959 0.000000
vt -6.000000 4.000000 0.000000
vt 0.000000 4.000000 0.000000
vt 0.000000 0.000000 0.000000
vt 2.000000 0.000000 0.000000
vt 2.000000 1.000000 0.000000
vt 1.000000 1.000000 0.000000
vt 1.000000 5.000000 0.000000
vt -7.000000 5.000000 0.000000
vt 8.000000 0.797959 0.000000
vt 9.000000 0.797959 0.000000
vt 9.000000 5.000000 0.000000
vt 1.000000 5.000000 0.000000
vt 1.000000 1.000000 0.000000
vt 0.000000 1.000000 0.000000
vt 0.000000 0.000000 0.000000
vt 2.000000 0.000000 0.000000
vt 2.000000 4.000000 0.000000
vt 8.000000 4.000000 0.000000
vt 4.000000 0.000000 0.000000
vt 4.000000 4.000000 0.000000
vt 0.000000 4.000000 0.000000
vt 0.000000 0.000000 0.000000
vt 5.205771 -2.500000 0.000000
vt 4.868946 -1.858233 0.000000
vt 4.584854 -1.191444 0.000000
vt 4.355337 -0.503957 0.000000
vt 4.181884 0.199769 0.000000
vt 4.065620 0.915170 0.000000
vt 4.007299 1.637607 0.000000
vt 4.007299 2.362393 0.000000
vt 4.065620 3.084830 0.000000
vt 4.181884 3.800231 0.000000
vt 4.355337 4.503957 0.000000
vt 4.584854 5.191444 0.000000
vt 4.868946 5.858233 0.000000
vt 5.205771 6.500000 0.000000
vt 4.339746 7.000000 0.000000
vt 4.035707 6.431869 0.000000
vt 3.768890 5.845335 0.000000
vt 3.540401 5.242836 0.000000
vt 3.351189 4.626872 0.000000
vt 3.202041 4.000000 0.000000
vt 0.000000 4.000000 0.000000
vt 0.000000 0.000000 0.000000
vt 3.202041 0.000000 0.000000
vt 3.351189 -0.626871 0.000000
vt 3.540401 -1.242836 0.000000
vt 3.768890 -1.845335 0.000000
vt 4.035707 -2.431869 0.000000
vt 4.339746 -3.000000 0.000000
vt 6.000000 4.000000 0.000000
vt 0.000000 4.000000 0.000000
vt 0.000000 0.000000 0.000000
vt 6.000000 0.000000 0.000000
vt 8.000000 4.000000 0.000000
vt 0.000000 4.000000 0.000000
vt 0.000000 0.000000 0.000000
vt 8.000000 0.000000 0.000000
vt -1.500000 -2.000000 0.000000
vt 0.500000 -2.000000 0.000000
vt 0.500000 -1.000000 0.000000
vt 1.000000 -1.000000 0.000000
vt 1.000000 -1.500000 0.000000
vt 1.500000 -1.500000 0.000000
vt 1.500000 1.500000 0.000000
vt 1.000000 1.500000 0.000000
vt 1.000000 1.000000 0.000000
vt 0.500000 1.000000 0.000000
vt 0.500000 2.000000 0.000000
vt -1.500000 2.000000 0.000000
vt 0.000000 0.000000 0.000000
vt 0.500000 0.000000 0.000000
vt 0.500000 1.000000 0.000000
vt 0.000000 1.000000 0.000000
vt 0.000000 0.000000 0.000000
vt 3.000000 0.000000 0.000000
vt 3.000000 1.000000 0.000000
vt 0.000000 1.000000 0.000000
vt 0.000000 0.000000 0.000000
vt 0.500000 0.000000 0.000000
vt 0.500000 1.000000 0.000000
vt 0.000000 1.000000 0.000000
vt 0.000000 0.000000 0.000000
vt 0.500000 0.000000 0.000000
vt 0.500000 1.000000 0.000000
vt 0.000000 1.000000 0.000000
vt 0.000000 0.000000 0.000000
vt 0.500000 0.000000 0.000000
vt 0.500000 1.000000 0.000000
vt 0.000000 1.000000 0.000000
vt 0.000000 0.000000 0.000000
vt 1.000000 0.000000 0.000000
vt 1.000000 1.000000 0.000000
vt 0.000000 1.000000 0.000000
vt 0.000000 0.000000 0.000000
vt 4.000000 0.000000 0.000000
vt 4.000000 4.000000 0.000000
vt 0.000000 4.000000 0.000000
vt 0.000000 0.000000 0.000000
vt 1.000000 0.000000 0.000000
vt 1.000000 1.000000 0.000000
vt 0.000000 1.000000 0.000000
vt 0.000000 0.000000 0.000000
vt 0.500000 0.000000 0.000000
vt 0.500000 1.000000 0.000000
vt 0.000000 1.000000 0.000000
vt 0.000000 0.000000 0.000000
vt 0.500000 0.000000 0.000000
vt 0.500000 1.000000 0.000000
vt 0.000000 1.000000 0.000000
vt 0.500000 -2.000000 0.000000
vt 0.500000 2.000000 0.000000
vt -0.500000 2.000000 0.000000
vt -0.500000 1.000000 0.000000
vt -1.000000 1.000000 0.000000
vt -1.000000 1.500000 0.000000
vt -1.500000 1.500000 0.000000
vt -1.500000 -1.500000 0.000000
vt -1.000000 -1.500000 0.000000
vt -1.000000 -1.000000 0.000000
vt -0.500000 -1.000000 0.000000
vt -0.500000 -2.000000 0.000000
vn 0.000000 0.000000 -0.100000
vn 0.000000 0.000000 -0.100000
vn 0.000000 0.000000 -0.100000
vn 0.000000 0.000000 -0.100000
vn 0.000000 0.000000 -0.100000
vn 0.000000 0.000000 -0.100000
vn 0.000000 0.000000 -0.100000
vn 0.000000 0.000000 -0.100000
vn 0.000000 0.000000 -0.100000
vn 0.000000 0.000000 -0.100000
vn 0.000000 0.000000 -0.100000
vn 0.000000 0.000000 -0.100000
vn 0.000000 0.000000 -0.100000
vn 0.000000 0.000000 -0.100000
vn 0.000000 0.000000 -0.100000
vn 0.000000 0.000000 -0.100000
vn 0.000000 0.000000 -0.100000
vn 0.000000 0.000000 -0.100000
vn 0.000000 0.000000 -0.100000
vn 0.000000 0.000000 -0.100000
vn 0.000000 0.000000 -0.100000
vn 0.000000 0.000000 -0.100000
vn 0.000000 0.000000 -0.100000
vn 0.000000 0.000000 -0.100000
vn 0.000000 0.000000 -0.100000
vn 0.000000 0.000000 -0.100000
vn 0.000000 0.000000 -0.100000
vn 0.000000 0.000000 -0.100000
vn -0.050000 0.086603 0.000000
vn -0.050000 0.086603 0.000000
vn -0.050000 0.086603 0.000000
vn -0.050000 0.086603 0.000000
vn 0.086603 0.050000 0.000000
vn 0.089643 0.044319 0.000000
vn 0.092311 0.038453 0.000000
vn 0.094596 0.032428 0.000000
vn 0.096488 0.026269 0.000000
vn 0.097980 0.020000 0.000000
vn 0.097980 0.020000 0.000000
vn 0.096488 0.026269 0.000000
vn 0.094596 0.032428 0.000000
vn 0.092311 0.038453 0.000000
vn 0.089643 0.044319 0.000000
vn 0.086603 0.050000 0.000000
vn -0.050000 -0.086603 0.000000
vn -0.050000 -0.086603 0.000000
vn -0.050000 -0.086603 0.000000
vn -0.050000 -0.086603 0.000000
vn 0.097980 -0.020000 0.000000
vn 0.096488 -0.026269 0.000000
vn 0.094596 -0.032428 0.000000
vn 0.092311 -0.038453 0.000000
vn 0.089643 -0.044319 0.000000
vn 0.086603 -0.050000 0.000000
vn 0.086603 -0.050000 0.000000
vn 0.089643 -0.044319 0.000000
vn 0.092311 -0.038453 0.000000
vn 0.094596 -0.032428 0.000000
vn 0.096488 -0.026269 0.000000
vn 0.097980 -0.020000 0.000000
vn -0.086603 0.050000 0.000000
vn -0.090345 0.042869 0.000000
vn -0.093502 0.035460 0.000000
vn -0.096052 0.027822 0.000000
vn -0.097979 0.020003 0.000000
vn -0.099271 0.012054 0.000000
vn -0.099919 0.004027 0.000000
vn -0.099919 -0.004027 0.000000
vn -0.099271 -0.012054 0.000000
vn -0.097979 -0.020003 0.000000
vn -0.096052 -0.027822 0.000000
vn -0.093502 -0.035460 0.000000
vn -0.090345 -0.042869 0.000000
vn -0.086603 -0.050000 0.000000
vn -0.086603 -0.050000 0.000000
vn -0.090345 -0.042869 0.000000
vn -0.093502 -0.035460 0.000000
vn -0.096052 -0.027822 0.000000
vn -0.097979 -0.020003 0.000000
vn -0.099271 -0.012054 0.000000
vn -0.099919 -0.004027 0.000000
vn -0.099919 0.004027 0.000000
vn -0.099271 0.012054 0.000000
vn -0.097979 0.020003 0.000000
vn -0.096052 0.027822 0.000000
vn -0.093502 0.035460 0.000000
vn -0.090345 0.042869 0.000000
vn -0.086603 0.050000 0.000000
vn 0.000000 0.100000 0.000000
vn 0.000000 0.100000 0.000000
vn 0.000000 0.100000 0.000000
vn 0.000000 0.100000 0.000000
vn 0.000000 0.100000 0.000000
vn 0.000000 0.100000 0.000000
vn 0.000000 0.100000 0.000000
vn 0.000000 0.100000 0.000000
vn 0.000000 0.100000 0.000000
vn 0.000000 0.100000 0.000000
vn 0.000000 -0.100000 0.000000
vn 0.000000 -0.100000 0.000000
vn 0.000000 -0.100000 0.000000
vn 0.000000 -0.100000 0.000000
vn 0.000000 -0.100000 0.000000
vn 0.000000 -0.100000 0.000000
vn 0.000000 -0.100000 0.000000
vn 0.000000 -0.100000 0.000000
vn 0.000000 -0.100000 0.000000
vn 0.000000 -0.100000 0.000000
vn 0.000000 0.000000 0.100000
vn 0.000000 0.000000 0.100000
vn 0.000000 0.000000 0.100000
vn 0.000000 0.000000 0.100000
vn 0.000000 0.000000 0.100000
vn 0.000000 0.000000 0.100000
vn 0.000000 0.000000 0.100000
vn 0.000000 0.000000 0.100000
vn 0.000000 0.000000 0.100000
vn 0.000000 0.000000 0.100000
vn 0.000000 0.000000 0.100000
vn 0.000000 0.000000 0.100000
vn 0.000000 0.000000 0.100000
vn 0.000000 0.000000 0.100000
vn 0.000000 0.000000 0.100000
vn 0.000000 0.000000 0.100000
vn 0.000000 0.000000 0.100000
vn 0.000000 0.000000 0.100000
vn 0.000000 0.000000 0.100000
vn 0.000000 0.000000 0.100000
vn 0.000000 0.000000 0.100000
vn 0.000000 0.000000 0.100000
vn 0.000000 0.000000 0.100000
vn 0.000000 0.000000 0.100000
vn 0.000000 0.000000 0.100000
vn 0.000000 0.000000 0.100000
vn 0.000000 0.000000 0.100000
vn 0.000000 0.000000 0.100000
vn 0.000000 0.000000 0.100000
vn 0.000000 0.000000 0.100000
vn 0.000000 0.000000 0.100000
vn 0.000000 0.000000 0.100000
vn -0.100000 0.000000 0.000000
vn -0.100000 0.000000 0.000000
vn -0.100000 0.000000 0.000000
vn -0.100000 0.000000 0.000000
vn 0.100000 0.000000 0.000000
vn 0.100000 0.000000 0.000000
vn 0.100000 0.000000 0.000000
vn 0.100000 0.000000 0.000000
vn -0.100000 0.000000 0.000000
vn -0.100000 0.000000 0.000000
vn -0.100000 0.000000 0.000000
vn -0.100000 0.000000 0.000000
vn -0.100000 0.000000 0.000000
vn -0.100000 0.000000 0.000000
vn -0.100000 0.000000 0.000000
vn -0.100000 0.000000 0.000000
vn -0.100000 0.000000 0.000000
vn -0.100000 0.000000 0.000000
vn -0.100000 0.000000 0.000000
vn -0.100000 0.000000 0.000000
vn 0.000000 -0.100000 0.000000
vn 0.000000 -0.100000 0.000000
vn 0.000000 -0.100000 0.000000
vn 0.000000 -0.100000 0.000000
vn 0.000000 0.000000 0.100000
vn 0.000000 0.000000 0.100000
vn 0.000000 0.000000 0.100000
vn 0.000000 0.000000 0.100000
vn 0.000000 0.100000 0.000000
vn 0.000000 0.100000 0.000000
vn 0.000000 0.100000 0.000000
vn 0.000000 0.100000 0.000000
vn 0.000000 0.000000 -0.100000
vn 0.000000 0.000000 -0.100000
vn 0.000000 0.000000 -0.100000
vn 0.000000 0.000000 -0.100000
vn 0.000000 0.100000 0.000000
vn 0.000000 0.100000 0.000000
vn 0.000000 0.100000 0.000000
vn 0.000000 0.100000 0.000000
vn 0.000000 0.000000 0.100000
vn 0.000000 0.000000 0.100000
vn 0.000000 0.000000 0.100000
vn 0.000000 0.000000 0.100000
vn 0.000000 0.000000 -0.100000
vn 0.000000 0.000000 -0.100000
vn 0.000000 0.000000 -0.100000
vn 0.000000 0.000000 -0.100000
vn 0.000000 0.000000 0.100000
vn 0.000000 0.000000 0.100000
vn 0.000000 0.000000 0.100000
vn 0.000000 0.000000 0.100000
vn 0.000000 -0.100000 0.000000
vn 0.000000 -0.100000 0.000000
vn 0.000000 -0.100000 0.000000
vn 0.000000 -0.100000 0.000000
vn 0.000000 0.000000 -0.100000
vn 0.000000 0.000000 -0.100000
vn 0.000000 0.000000 -0.100000
vn 0.000000 0.000000 -0.100000
vn 0.100000 0.000000 0.000000
vn 0.100000 0.000000 0.000000
vn 0.100000 0.000000 0.000000
vn 0.100000 0.000000 0.000000
vn 0.100000 0.000000 0.000000
vn 0.100000 0.000000 0.000000
vn 0.100000 0.000000 0.000000
vn 0.100000 0.000000 0.000000
vn 0.100000 0.000000 0.000000
vn 0.100000 0.000000 0.000000
vn 0.100000 0.000000 0.000000
vn 0.100000 0.000000 0.000000
usemtl 191,191,191
f 1/1/1 5/2/2 17/28/28
f 17/28/28 5/2/2 29/27/27
f 29/27/27 5/2/2 9/3/3
f 29/27/27 9/3/3 49/26/26
f 49/26/26 9/3/3 13/4/4
f 49/26/26 13/4/4 53/25/25
f 53/25/25 13/4/4 57/24/24
f 57/24/24 13/4/4 21/5/5
f 57/24/24 21/5/5 61/23/23
f 61/23/23 21/5/5 25/6/6
f 61/23/23 25/6/6 33/7/7
f 33/7/7 35/8/8 61/23/23
f 61/23/23 35/8/8 63/20/20
f 61/23/23 63/20/20 83/21/21
f 35/8/8 27/9/9 63/20/20
f 63/20/20 27/9/9 23/10/10
f 63/20/20 23/10/10 59/19/19
f 59/19/19 23/10/10 15/11/11
f 59/19/19 15/11/11 55/18/18
f 55/18/18 15/11/11 51/17/17
f 51/17/17 15/11/11 11/12/12
f 51/17/17 11/12/12 31/16/16
f 31/16/16 11/12/12 7/13/13
f 31/16/16 7/13/13 19/15/15
f 19/15/15 7/13/13 3/14/14
f 83/21/21 81/22/22 61/23/23
f 4/29/29 20/30/30 3/32/32
f 3/32/32 20/30/30 19/31/31
f 19/44/44 20/33/33 31/43/43
f 31/43/43 20/33/33 32/34/34
f 31/43/43 32/34/34 52/35/35
f 31/43/43 52/35/35 51/42/42
f 51/42/42 52/35/35 56/36/36
f 51/42/42 56/36/36 55/41/41
f 55/41/41 56/36/36 60/37/37
f 55/41/41 60/37/37 59/40/40
f 59/40/40 60/37/37 64/38/38
f 59/40/40 64/38/38 63/39/39
f 18/45/45 2/46/46 17/48/48
f 17/48/48 2/46/46 1/47/47
f 62/49/49 58/50/50 61/60/60
f 61/60/60 58/50/50 57/59/59
f 57/59/59 58/50/50 53/58/58
f 53/58/58 58/50/50 54/51/51
f 53/58/58 54/51/51 50/52/52
f 53/58/58 50/52/52 49/57/57
f 49/57/57 50/52/52 30/53/53
f 49/57/57 30/53/53 29/56/56
f 29/56/56 30/53/53 18/54/54
f 29/56/56 18/54/54 17/55/55
f 2/61/61 6/62/62 1/88/88
f 1/88/88 6/62/62 5/87/87
f 5/87/87 6/62/62 10/63/63
f 5/87/87 10/63/63 9/86/86
f 9/86/86 10/63/63 14/64/64
f 9/86/86 14/64/64 13/85/85
f 13/85/85 14/64/64 22/65/65
f 13/85/85 22/65/65 21/84/84
f 21/84/84 22/65/65 26/66/66
f 21/84/84 26/66/66 25/83/83
f 25/83/83 26/66/66 34/67/67
f 25/83/83 34/67/67 33/82/82
f 33/82/82 34/67/67 36/68/68
f 33/82/82 36/68/68 35/81/81
f 35/81/81 36/68/68 28/69/69
f 35/81/81 28/69/69 27/80/80
f 27/80/80 28/69/69 24/70/70
f 27/80/80 24/70/70 23/79/79
f 23/79/79 24/70/70 16/71/71
f 23/79/79 16/71/71 15/78/78
f 15/78/78 16/71/71 12/72/72
f 15/78/78 12/72/72 11/77/77
f 11/77/77 12/72/72 8/73/73
f 11/77/77 8/73/73 7/76/76
f 7/76/76 8/73/73 3/75/75
f 3/75/75 8/73/73 4/74/74
f 64/90/90 79/91/91 63/89/89
f 63/89/89 79/91/91 83/98/98
f 83/98/98 79/91/91 80/92/92
f 83/98/98 80/92/92 84/97/97
f 84/97/97 80/92/92 75/96/96
f 75/96/96 80/92/92 47/93/93
f 75/96/96 47/93/93 48/94/94
f 48/94/94 76/95/95 75/96/96
f 62/99/99 61/100/100 77/108/108
f 77/108/108 61/100/100 81/101/101
f 77/108/108 81/101/101 82/102/102
f 77/108/108 82/102/102 78/107/107
f 78/107/107 82/102/102 65/103/103
f 78/107/107 65/103/103 37/106/106
f 37/106/106 65/103/103 38/105/105
f 38/105/105 65/103/103 66/104/104
f 65/110/110 82/111/111 75/109/109
f 75/109/109 82/111/111 84/112/112
f 4/113/113 8/114/114 20/140/140
f 20/140/140 8/114/114 32/139/139
f 32/139/139 8/114/114 12/115/115
f 32/139/139 12/115/115 52/138/138
f 52/138/138 12/115/115 16/116/116
f 52/138/138 16/116/116 56/137/137
f 56/137/137 16/116/116 24/117/117
f 56/137/137 24/117/117 60/136/136
f 60/136/136 24/117/117 64/135/135
f 64/135/135 24/117/117 28/118/118
f 64/135/135 28/118/118 36/119/119
f 64/135/135 36/119/119 62/132/132
f 62/132/132 36/119/119 34/120/120
f 62/132/132 34/120/120 26/121/121
f 26/121/121 22/122/122 62/132/132
f 62/132/132 22/122/122 58/131/131
f 58/131/131 22/122/122 54/130/130
f 54/130/130 22/122/122 14/123/123
f 54/130/130 14/123/123 50/129/129
f 50/129/129 14/123/123 10/124/124
f 50/129/129 10/124/124 30/128/128
f 30/128/128 10/124/124 6/125/125
f 30/128/128 6/125/125 18/127/127
f 18/127/127 6/125/125 2/126/126
f 77/133/133 79/134/134 62/132/132
f 62/132/132 79/134/134 64/135/135
f 77/141/141 78/142/142 79/144/144
f 79/144/144 78/142/142 80/143/143
f 82/145/145 81/146/146 84/148/148
f 84/148/148 81/146/146 83/147/147
f 38/150/150 41/151/151 37/149/149
f 37/149/149 41/151/151 43/158/158
f 37/149/149 43/158/158 47/160/160
f 47/160/160 43/158/158 48/159/159
f 41/151/151 42/152/152 43/158/158
f 43/158/158 42/152/152 44/157/157
f 44/157/157 42/152/152 40/154/154
f 44/157/157 40/154/154 46/155/155
f 42/152/152 39/153/153 40/154/154
f 46/155/155 45/156/156 44/157/157
f 40/161/161 39/162/162 68/164/164
f 68/164/164 39/162/162 67/163/163
f 46/165/165 40/166/166 74/168/168
f 74/168/168 40/166/166 68/167/167
f 45/169/169 46/170/170 73/172/172
f 73/172/172 46/170/170 74/171/171
f 44/173/173 45/174/174 72/176/176
f 72/176/176 45/174/174 73/175/175
f 43/177/177 44/178/178 71/180/180
f 71/180/180 44/178/178 72/179/179
f 48/181/181 43/182/182 76/184/184
f 76/184/184 43/182/182 71/183/183
f 37/185/185 47/186/186 78/188/188
f 78/188/188 47/186/186 80/187/187
f 41/189/189 38/190/190 69/192/192
f 69/192/192 38/190/190 66/191/191
f 42/193/193 41/194/194 70/196/196
f 70/196/196 41/194/194 69/195/195
f 39/197/197 42/198/198 67/200/200
f 67/200/200 42/198/198 70/199/199
f 75/202/202 71/204/204 65/201/201
f 65/201/201 71/204/204 69/211/211
f 65/201/201 69/211/211 66/212/212
f 75/202/202 76/203/203 71/204/204
f 71/204/204 72/205/205 69/211/211
f 69/211/211 72/205/205 70/210/210
f 70/210/210 72/205/205 68/208/208
f 70/210/210 68/208/208 67/209/209
f 73/206/206 74/207/207 72/205/205
f 72/205/205 74/207/207 68/208/208

# 84 vertices
# 212 texture params
# 212 normals
# 164 facets

# 1 groups
