# WaveFront *.obj file (generated by Autodesk ATF)

mtllib Hubkolben.mtl

g Volumenkörper1

v -150.000000 2.000000 -100.000000
v -150.000000 2.000000 98.000002
v -150.000000 17.763932 0.000000
v -150.000000 66.763930 98.000002
v -150.000000 67.763934 -100.000000
v -149.788857 68.000002 -100.000000
v -148.000002 0.000000 -98.000002
v -148.000002 0.000000 98.000002
v -148.000002 2.000000 100.000000
v -148.000002 20.894427 -1.788854
v -148.000002 20.894427 1.788854
v -148.000002 68.000002 100.000000
v -148.000002 69.105573 -98.211145
v -148.000002 69.105573 98.211145
v -69.698462 -500.000000 -81.710100
v -69.698462 -500.000000 -78.289900
v -69.698462 0.000000 -81.710100
v -69.698462 0.000000 -78.289900
v -67.500000 -500.000000 -84.330130
v -67.500000 -500.000000 -75.669875
v -67.500000 0.000000 -84.330130
v -67.500000 0.000000 -75.669875
v -64.131761 -500.000000 -84.924040
v -64.131761 -500.000000 -75.075960
v -64.131761 0.000000 -84.924040
v -64.131761 0.000000 -75.075960
v -61.169777 -500.000000 -83.213940
v -61.169777 -500.000000 -76.786060
v -61.169777 0.000000 -83.213940
v -61.169777 0.000000 -76.786060
v -60.000000 -500.000000 -80.000000
v -60.000000 0.000000 -80.000000
v -30.000000 0.000000 -50.000000
v -30.000000 0.000000 50.000000
v -30.000000 20.894427 -1.788854
v -30.000000 20.894427 1.788854
v -30.000000 45.000000 -50.000000
v -30.000000 45.000000 50.000000
v 30.000000 0.000000 -50.000000
v 30.000000 0.000000 50.000000
v 30.000000 20.894427 -1.788854
v 30.000000 20.894427 1.788854
v 30.000000 45.000000 -50.000000
v 30.000000 45.000000 50.000000
v 60.301538 -500.000000 -81.710100
v 60.301538 -500.000000 -78.289900
v 60.301538 0.000000 -81.710100
v 60.301538 0.000000 -78.289900
v 62.500000 -500.000000 -84.330130
v 62.500000 -500.000000 -75.669875
v 62.500000 0.000000 -84.330130
v 62.500000 0.000000 -75.669875
v 65.868239 -500.000000 -84.924040
v 65.868239 -500.000000 -75.075960
v 65.868239 0.000000 -84.924040
v 65.868239 0.000000 -75.075960
v 68.830223 -500.000000 -83.213940
v 68.830223 -500.000000 -76.786060
v 68.830223 0.000000 -83.213940
v 68.830223 0.000000 -76.786060
v 70.000000 -500.000000 -80.000000
v 70.000000 0.000000 -80.000000
v 148.000002 0.000000 -98.000002
v 148.000002 0.000000 98.000002
v 148.000002 2.000000 -100.000000
v 148.000002 2.000000 100.000000
v 148.000002 20.894427 -1.788854
v 148.000002 20.894427 1.788854
v 148.000002 68.000002 -100.000000
v 148.000002 68.000002 100.000000
v 148.000002 69.105573 -98.211145
v 148.000002 69.105573 98.211145
v 150.000000 2.000000 -98.000002
v 150.000000 2.000000 98.000002
v 150.000000 17.763932 0.000000
v 150.000000 66.763930 -98.000002
v 150.000000 66.763930 98.000002
vt -5.178885 2.089443 0.000000
vt -10.000000 4.500000 0.000000
vt -10.000000 0.000000 0.000000
vt -0.000000 0.000000 0.000000
vt -0.000000 4.500000 0.000000
vt -4.821115 2.089443 0.000000
vt -0.000000 4.500000 0.000000
vt -6.000000 4.500000 0.000000
vt -6.000000 0.000000 0.000000
vt -0.000000 0.000000 0.000000
vt -0.000000 4.500000 0.000000
vt -6.000000 4.500000 0.000000
vt -6.000000 0.000000 0.000000
vt -0.000000 0.000000 0.000000
vt -0.000000 4.500000 0.000000
vt -4.821115 2.089443 0.000000
vt -5.178885 2.089443 0.000000
vt -10.000000 4.500000 0.000000
vt -10.000000 0.000000 0.000000
vt -0.000000 0.000000 0.000000
vt 10.980340 12.000000 0.000000
vt 5.590170 12.000000 0.000000
vt 5.590170 18.000000 0.000000
vt 10.980340 18.000000 0.000000
vt 10.980340 29.799999 0.000000
vt 0.200000 29.799999 0.000000
vt 0.200000 0.200000 0.000000
vt 10.980340 0.200000 0.000000
vt 0.178885 -18.000000 0.000000
vt -0.178885 -18.000000 0.000000
vt -0.178885 -29.799999 0.000000
vt 0.178885 -29.799999 0.000000
vt -0.178885 -12.000000 0.000000
vt 0.178885 -12.000000 0.000000
vt 0.178885 -0.200000 0.000000
vt -0.178885 -0.200000 0.000000
vt -0.282843 0.000000 0.000000
vt -0.141421 -0.244949 0.000000
vt 0.000000 0.000000 0.000000
vt 22.500000 0.141421 0.000000
vt -7.300000 0.141421 0.000000
vt -7.300000 -0.141421 0.000000
vt 22.299999 -0.141421 0.000000
vt 0.141421 0.244949 0.000000
vt -0.141421 0.244949 0.000000
vt 0.000000 0.000000 0.000000
vt 0.141421 0.244949 0.000000
vt -0.141421 0.244949 0.000000
vt 0.000000 0.000000 0.000000
vt -4.800000 -0.141421 0.000000
vt 14.800000 -0.141421 0.000000
vt 14.800000 0.141421 0.000000
vt -5.000000 0.141421 0.000000
vt 22.299999 -0.141421 0.000000
vt 22.299999 0.141421 0.000000
vt -7.300000 0.141421 0.000000
vt -7.300000 -0.141421 0.000000
vt -0.160000 0.136466 0.000000
vt -0.268328 -0.152573 0.000000
vt 0.000000 0.000000 0.000000
vt 0.141421 6.800000 0.000000
vt -0.141421 6.676393 0.000000
vt -0.141421 0.200000 0.000000
vt 0.141421 0.200000 0.000000
vt -0.108328 0.289039 0.000000
vt -0.268328 0.152573 0.000000
vt 0.000000 0.000000 0.000000
vt 0.141421 6.676393 0.000000
vt -0.141421 6.800000 0.000000
vt -0.141421 0.200000 0.000000
vt 0.141421 0.200000 0.000000
vt 0.268328 0.152573 0.000000
vt 0.108328 0.289039 0.000000
vt 0.000000 0.000000 0.000000
vt 0.178885 0.371484 0.000000
vt -0.178885 0.371484 0.000000
vt 0.000000 0.000000 0.000000
vt -1.033070 0.903696 0.000000
vt -1.095445 0.601392 0.000000
vt 7.850690 -5.724481 0.000000
vt 7.769040 -5.320336 0.000000
vt 4.098282 3.071128 0.000000
vt 4.016632 2.666983 0.000000
vt 12.962768 8.992855 0.000000
vt 12.900393 9.295160 0.000000
vt 0.178885 0.371484 0.000000
vt -0.178885 0.371484 0.000000
vt 0.000000 0.000000 0.000000
vt -5.842374 3.957977 0.000000
vt 3.286335 -2.496995 0.000000
vt 3.204686 -2.092850 0.000000
vt -5.597425 4.131182 0.000000
vt -5.833754 3.988453 0.000000
vt 8.398413 5.765369 0.000000
vt 8.336038 6.067674 0.000000
vt -0.466073 -0.156358 0.000000
vt -0.547723 -0.560503 0.000000
vt 29.799999 0.105146 0.000000
vt 0.200000 0.105146 0.000000
vt 0.200000 -0.105146 0.000000
vt 29.978886 -0.105146 0.000000
vt 0.141421 6.800000 0.000000
vt -0.141421 6.676393 0.000000
vt -0.141421 0.200000 0.000000
vt 0.141421 0.200000 0.000000
vt -14.800000 0.105146 0.000000
vt -14.800000 -0.105146 0.000000
vt 14.800000 -0.105146 0.000000
vt 14.800000 0.105146 0.000000
vt 14.800000 -0.141421 0.000000
vt 14.800000 0.141421 0.000000
vt -4.800000 0.141421 0.000000
vt -4.800000 -0.141421 0.000000
vt 0.000000 0.200000 0.000000
vt 19.799999 0.200000 0.000000
vt 19.799999 6.676393 0.000000
vt 10.000000 1.776393 0.000000
vt 0.000000 6.776393 0.000000
vt 5.000000 3.000000 0.000000
vt 5.000000 -3.000000 0.000000
vt -5.000000 -3.000000 0.000000
vt -5.000000 3.000000 0.000000
vt 8.000000 -6.000000 0.000000
vt 8.321394 -6.116978 0.000000
vt 8.492404 -6.413176 0.000000
vt 8.433013 -6.750000 0.000000
vt 8.171010 -6.969846 0.000000
vt 7.828990 -6.969846 0.000000
vt 7.566988 -6.750000 0.000000
vt 7.507596 -6.413176 0.000000
vt 7.678606 -6.116978 0.000000
vt 8.000000 7.000000 0.000000
vt 8.321394 6.883022 0.000000
vt 8.492404 6.586824 0.000000
vt 8.433013 6.250000 0.000000
vt 8.171010 6.030154 0.000000
vt 7.828990 6.030154 0.000000
vt 7.566988 6.250000 0.000000
vt 7.507596 6.586824 0.000000
vt 7.678606 6.883022 0.000000
vt 9.800000 -14.800000 0.000000
vt 9.800000 14.800000 0.000000
vt -9.800000 14.800000 0.000000
vt -9.800000 -14.800000 0.000000
vt 0.200000 0.200000 0.000000
vt 29.799999 0.200000 0.000000
vt 29.799999 6.800000 0.000000
vt 0.200000 6.800000 0.000000
vt 0.200000 6.676393 0.000000
vt 0.200000 0.200000 0.000000
vt 19.799999 0.200000 0.000000
vt 19.799999 6.676393 0.000000
vt 10.000000 1.776393 0.000000
vt 5.590170 12.000000 0.000000
vt 0.200000 12.000000 0.000000
vt 0.200000 0.200000 0.000000
vt 10.980340 0.200000 0.000000
vt 10.980340 29.799999 0.000000
vt 0.200000 29.799999 0.000000
vt 0.200000 18.000000 0.000000
vt 5.590170 18.000000 0.000000
vt -50.000000 0.000000 0.000000
vt -50.000000 -0.349066 0.000000
vt -50.000000 -0.698132 0.000000
vt -50.000000 -1.047198 0.000000
vt -50.000000 -1.396263 0.000000
vt -50.000000 1.396263 0.000000
vt -50.000000 1.047198 0.000000
vt -50.000000 0.698132 0.000000
vt -50.000000 0.349066 0.000000
vt -0.000000 0.000000 0.000000
vt -0.000000 0.349066 0.000000
vt -0.000000 0.698132 0.000000
vt -0.000000 1.047198 0.000000
vt -0.000000 -1.745329 0.000000
vt -0.000000 -1.396263 0.000000
vt -0.000000 -1.047198 0.000000
vt -0.000000 -0.698132 0.000000
vt -0.000000 -0.349066 0.000000
vt -0.000000 1.396263 0.000000
vt -0.000000 1.396263 0.000000
vt -50.000000 -1.745329 0.000000
vt -50.000000 -1.745329 0.000000
vt 0.000000 0.500000 0.000000
vt -0.321394 0.383022 0.000000
vt -0.492404 0.086824 0.000000
vt -0.433013 -0.250000 0.000000
vt -0.171010 -0.469846 0.000000
vt 0.171010 -0.469846 0.000000
vt 0.433013 -0.250000 0.000000
vt 0.492404 0.086824 0.000000
vt 0.321394 0.383022 0.000000
vt -50.000000 0.000000 0.000000
vt -50.000000 -0.349066 0.000000
vt -50.000000 -0.698132 0.000000
vt -50.000000 -1.047198 0.000000
vt -50.000000 -1.396263 0.000000
vt -50.000000 1.396263 0.000000
vt -50.000000 1.047198 0.000000
vt -50.000000 0.698132 0.000000
vt -50.000000 0.349066 0.000000
vt -0.000000 0.000000 0.000000
vt -0.000000 0.349066 0.000000
vt -0.000000 0.698132 0.000000
vt -0.000000 1.047198 0.000000
vt -0.000000 -1.745329 0.000000
vt -0.000000 -1.396263 0.000000
vt -0.000000 -1.047198 0.000000
vt -0.000000 -0.698132 0.000000
vt -0.000000 -0.349066 0.000000
vt -0.000000 1.396263 0.000000
vt -0.000000 1.396263 0.000000
vt -50.000000 -1.745329 0.000000
vt -50.000000 -1.745329 0.000000
vt 0.000000 0.500000 0.000000
vt -0.321394 0.383022 0.000000
vt -0.492404 0.086824 0.000000
vt -0.433013 -0.250000 0.000000
vt -0.171010 -0.469846 0.000000
vt 0.171010 -0.469846 0.000000
vt 0.433013 -0.250000 0.000000
vt 0.492404 0.086824 0.000000
vt 0.321394 0.383022 0.000000
vt 0.200000 0.200000 0.000000
vt 30.000000 0.200000 0.000000
vt 30.000000 6.776393 0.000000
vt 29.978886 6.800000 0.000000
vt 0.200000 6.800000 0.000000
vn -0.100000 0.000000 0.000000
vn -0.100000 0.000000 0.000000
vn -0.100000 0.000000 0.000000
vn -0.100000 0.000000 0.000000
vn -0.100000 0.000000 0.000000
vn -0.100000 0.000000 0.000000
vn 0.000000 0.000000 -0.100000
vn 0.000000 0.000000 -0.100000
vn 0.000000 0.000000 -0.100000
vn 0.000000 0.000000 -0.100000
vn 0.000000 0.000000 0.100000
vn 0.000000 0.000000 0.100000
vn 0.000000 0.000000 0.100000
vn 0.000000 0.000000 0.100000
vn 0.100000 0.000000 0.000000
vn 0.100000 0.000000 0.000000
vn 0.100000 0.000000 0.000000
vn 0.100000 0.000000 0.000000
vn 0.100000 0.000000 0.000000
vn 0.100000 0.000000 0.000000
vn 0.000000 0.089443 -0.044721
vn 0.000000 0.089443 -0.044721
vn 0.000000 0.089443 -0.044721
vn 0.000000 0.089443 -0.044721
vn 0.000000 0.089443 -0.044721
vn 0.000000 0.089443 -0.044721
vn 0.000000 0.089443 -0.044721
vn 0.000000 0.089443 -0.044721
vn 0.000000 0.100000 0.000000
vn 0.000000 0.100000 0.000000
vn 0.000000 0.100000 0.000000
vn 0.000000 0.100000 0.000000
vn 0.000000 0.100000 0.000000
vn 0.000000 0.100000 0.000000
vn 0.000000 0.100000 0.000000
vn 0.000000 0.100000 0.000000
vn 0.057735 -0.057735 -0.057735
vn 0.057735 -0.057735 -0.057735
vn 0.057735 -0.057735 -0.057735
vn 0.000000 -0.070711 -0.070711
vn 0.000000 -0.070711 -0.070711
vn 0.000000 -0.070711 -0.070711
vn 0.000000 -0.070711 -0.070711
vn 0.057735 -0.057735 0.057735
vn 0.057735 -0.057735 0.057735
vn 0.057735 -0.057735 0.057735
vn -0.057735 -0.057735 0.057735
vn -0.057735 -0.057735 0.057735
vn -0.057735 -0.057735 0.057735
vn -0.070711 -0.070711 0.000000
vn -0.070711 -0.070711 0.000000
vn -0.070711 -0.070711 0.000000
vn -0.070711 -0.070711 0.000000
vn 0.000000 -0.070711 0.070711
vn 0.000000 -0.070711 0.070711
vn 0.000000 -0.070711 0.070711
vn 0.000000 -0.070711 0.070711
vn 0.072462 0.058623 -0.036231
vn 0.072462 0.058623 -0.036231
vn 0.072462 0.058623 -0.036231
vn 0.070711 0.000000 -0.070711
vn 0.070711 0.000000 -0.070711
vn 0.070711 0.000000 -0.070711
vn 0.070711 0.000000 -0.070711
vn 0.072462 0.058623 0.036231
vn 0.072462 0.058623 0.036231
vn 0.072462 0.058623 0.036231
vn 0.070711 0.000000 0.070711
vn 0.070711 0.000000 0.070711
vn 0.070711 0.000000 0.070711
vn 0.070711 0.000000 0.070711
vn -0.072462 0.058623 0.036231
vn -0.072462 0.058623 0.036231
vn -0.072462 0.058623 0.036231
vn 0.084270 0.053838 0.000000
vn 0.084270 0.053838 0.000000
vn 0.084270 0.053838 0.000000
vn 0.070711 0.063246 -0.031623
vn 0.070711 0.063246 -0.031623
vn 0.070711 0.063246 -0.031623
vn 0.070711 0.063246 -0.031623
vn 0.070711 0.063246 0.031623
vn 0.070711 0.063246 0.031623
vn 0.070711 0.063246 0.031623
vn 0.070711 0.063246 0.031623
vn -0.084270 0.053838 0.000000
vn -0.084270 0.053838 0.000000
vn -0.084270 0.053838 0.000000
vn -0.070711 0.063246 0.031623
vn -0.070711 0.063246 0.031623
vn -0.070711 0.063246 0.031623
vn -0.070711 0.063246 0.031623
vn -0.070711 0.063246 0.031623
vn -0.070711 0.063246 -0.031623
vn -0.070711 0.063246 -0.031623
vn -0.070711 0.063246 -0.031623
vn -0.070711 0.063246 -0.031623
vn 0.000000 0.085065 -0.052573
vn 0.000000 0.085065 -0.052573
vn 0.000000 0.085065 -0.052573
vn 0.000000 0.085065 -0.052573
vn -0.070711 0.000000 0.070711
vn -0.070711 0.000000 0.070711
vn -0.070711 0.000000 0.070711
vn -0.070711 0.000000 0.070711
vn 0.000000 0.085065 0.052573
vn 0.000000 0.085065 0.052573
vn 0.000000 0.085065 0.052573
vn 0.000000 0.085065 0.052573
vn 0.070711 -0.070711 0.000000
vn 0.070711 -0.070711 0.000000
vn 0.070711 -0.070711 0.000000
vn 0.070711 -0.070711 0.000000
vn -0.100000 0.000000 0.000000
vn -0.100000 0.000000 0.000000
vn -0.100000 0.000000 0.000000
vn -0.100000 0.000000 0.000000
vn -0.100000 0.000000 0.000000
vn 0.000000 -0.100000 0.000000
vn 0.000000 -0.100000 0.000000
vn 0.000000 -0.100000 0.000000
vn 0.000000 -0.100000 0.000000
vn 0.000000 -0.100000 0.000000
vn 0.000000 -0.100000 0.000000
vn 0.000000 -0.100000 0.000000
vn 0.000000 -0.100000 0.000000
vn 0.000000 -0.100000 0.000000
vn 0.000000 -0.100000 0.000000
vn 0.000000 -0.100000 0.000000
vn 0.000000 -0.100000 0.000000
vn 0.000000 -0.100000 0.000000
vn 0.000000 -0.100000 0.000000
vn 0.000000 -0.100000 0.000000
vn 0.000000 -0.100000 0.000000
vn 0.000000 -0.100000 0.000000
vn 0.000000 -0.100000 0.000000
vn 0.000000 -0.100000 0.000000
vn 0.000000 -0.100000 0.000000
vn 0.000000 -0.100000 0.000000
vn 0.000000 -0.100000 0.000000
vn 0.000000 -0.100000 0.000000
vn 0.000000 -0.100000 0.000000
vn 0.000000 -0.100000 0.000000
vn 0.000000 -0.100000 0.000000
vn 0.000000 0.000000 0.100000
vn 0.000000 0.000000 0.100000
vn 0.000000 0.000000 0.100000
vn 0.000000 0.000000 0.100000
vn 0.100000 0.000000 0.000000
vn 0.100000 0.000000 0.000000
vn 0.100000 0.000000 0.000000
vn 0.100000 0.000000 0.000000
vn 0.100000 0.000000 0.000000
vn 0.000000 0.089443 0.044721
vn 0.000000 0.089443 0.044721
vn 0.000000 0.089443 0.044721
vn 0.000000 0.089443 0.044721
vn 0.000000 0.089443 0.044721
vn 0.000000 0.089443 0.044721
vn 0.000000 0.089443 0.044721
vn 0.000000 0.089443 0.044721
vn 0.100000 0.000000 0.000000
vn 0.076604 0.000000 -0.064279
vn 0.017365 0.000000 -0.098481
vn -0.050000 0.000000 -0.086603
vn -0.093969 0.000000 -0.034202
vn -0.093969 0.000000 0.034202
vn -0.050000 0.000000 0.086603
vn 0.017365 0.000000 0.098481
vn 0.076604 0.000000 0.064279
vn 0.100000 0.000000 0.000000
vn 0.076604 0.000000 0.064279
vn 0.017365 0.000000 0.098481
vn -0.050000 0.000000 0.086603
vn -0.093969 0.000000 0.034202
vn -0.093969 0.000000 -0.034202
vn -0.050000 0.000000 -0.086603
vn 0.017365 0.000000 -0.098481
vn 0.076604 0.000000 -0.064279
vn -0.093969 0.000000 0.034202
vn -0.093969 0.000000 0.034202
vn -0.093969 0.000000 0.034202
vn -0.093969 0.000000 0.034202
vn 0.000000 -0.100000 0.000000
vn 0.000000 -0.100000 0.000000
vn 0.000000 -0.100000 0.000000
vn 0.000000 -0.100000 0.000000
vn 0.000000 -0.100000 0.000000
vn 0.000000 -0.100000 0.000000
vn 0.000000 -0.100000 0.000000
vn 0.000000 -0.100000 0.000000
vn 0.000000 -0.100000 0.000000
vn 0.100000 0.000000 0.000000
vn 0.076604 0.000000 -0.064279
vn 0.017365 0.000000 -0.098481
vn -0.050000 0.000000 -0.086603
vn -0.093969 0.000000 -0.034202
vn -0.093969 0.000000 0.034202
vn -0.050000 0.000000 0.086603
vn 0.017365 0.000000 0.098481
vn 0.076604 0.000000 0.064279
vn 0.100000 0.000000 0.000000
vn 0.076604 0.000000 0.064279
vn 0.017365 0.000000 0.098481
vn -0.050000 0.000000 0.086603
vn -0.093969 0.000000 0.034202
vn -0.093969 0.000000 -0.034202
vn -0.050000 0.000000 -0.086603
vn 0.017365 0.000000 -0.098481
vn 0.076604 0.000000 -0.064279
vn -0.093969 0.000000 0.034202
vn -0.093969 0.000000 0.034202
vn -0.093969 0.000000 0.034202
vn -0.093969 0.000000 0.034202
vn 0.000000 -0.100000 0.000000
vn 0.000000 -0.100000 0.000000
vn 0.000000 -0.100000 0.000000
vn 0.000000 -0.100000 0.000000
vn 0.000000 -0.100000 0.000000
vn 0.000000 -0.100000 0.000000
vn 0.000000 -0.100000 0.000000
vn 0.000000 -0.100000 0.000000
vn 0.000000 -0.100000 0.000000
vn 0.000000 0.000000 -0.100000
vn 0.000000 0.000000 -0.100000
vn 0.000000 0.000000 -0.100000
vn 0.000000 0.000000 -0.100000
vn 0.000000 0.000000 -0.100000
usemtl 191,191,191
f 43/2/2 39/3/3 41/1/1
f 41/1/1 39/3/3 40/4/4
f 41/1/1 40/4/4 42/6/6
f 42/6/6 40/4/4 44/5/5
f 38/7/7 44/8/8 34/10/10
f 34/10/10 44/8/8 40/9/9
f 43/11/11 37/12/12 39/14/14
f 39/14/14 37/12/12 33/13/13
f 37/15/15 35/16/16 33/20/20
f 33/20/20 35/16/16 36/17/17
f 33/20/20 36/17/17 34/19/19
f 34/19/19 36/17/17 38/18/18
f 42/21/21 44/22/22 68/28/28
f 68/28/28 44/22/22 72/27/27
f 72/27/27 44/22/22 38/23/23
f 72/27/27 38/23/23 14/26/26
f 14/26/26 38/23/23 11/25/25
f 11/25/25 38/23/23 36/24/24
f 36/29/29 35/30/30 11/32/32
f 11/32/32 35/30/30 10/31/31
f 41/33/33 42/34/34 67/36/36
f 67/36/36 42/34/34 68/35/35
f 73/37/37 63/38/38 65/39/39
f 1/40/40 65/41/41 7/43/43
f 7/43/43 65/41/41 63/42/42
f 74/44/44 66/45/45 64/46/46
f 9/47/47 2/48/48 8/49/49
f 8/51/51 2/52/52 7/50/50
f 7/50/50 2/52/52 1/53/53
f 66/55/55 9/56/56 64/54/54
f 64/54/54 9/56/56 8/57/57
f 71/58/58 76/59/59 69/60/60
f 69/61/61 76/62/62 65/64/64
f 65/64/64 76/62/62 73/63/63
f 72/65/65 70/66/66 77/67/67
f 70/69/69 66/70/70 77/68/68
f 77/68/68 66/70/70 74/71/71
f 12/72/72 14/73/73 4/74/74
f 67/75/75 68/76/76 75/77/77
f 72/78/78 77/79/79 68/81/81
f 68/81/81 77/79/79 75/80/80
f 75/83/83 76/84/84 67/82/82
f 67/82/82 76/84/84 71/85/85
f 11/86/86 10/87/87 3/88/88
f 3/90/90 10/91/91 5/89/89
f 5/89/89 10/91/91 13/92/92
f 5/89/89 13/92/92 6/93/93
f 14/95/95 11/96/96 4/94/94
f 4/94/94 11/96/96 3/97/97
f 71/99/99 69/100/100 13/98/98
f 13/98/98 69/100/100 6/101/101
f 12/102/102 4/103/103 9/105/105
f 9/105/105 4/103/103 2/104/104
f 12/107/107 70/108/108 14/106/106
f 14/106/106 70/108/108 72/109/109
f 73/111/111 74/112/112 63/110/110
f 63/110/110 74/112/112 64/113/113
f 5/118/118 1/114/114 3/117/117
f 3/117/117 1/114/114 2/115/115
f 3/117/117 2/115/115 4/116/116
f 33/120/120 47/136/136 39/119/119
f 39/119/119 47/136/136 48/137/137
f 39/119/119 48/137/137 52/138/138
f 34/121/121 8/144/144 33/120/120
f 33/120/120 8/144/144 22/129/129
f 33/120/120 22/129/129 26/130/130
f 34/121/121 40/122/122 8/144/144
f 8/144/144 40/122/122 64/143/143
f 64/143/143 40/122/122 39/119/119
f 64/143/143 39/119/119 56/139/139
f 56/139/139 39/119/119 52/138/138
f 29/124/124 47/136/136 32/123/123
f 32/123/123 47/136/136 33/120/120
f 32/123/123 33/120/120 30/131/131
f 30/131/131 33/120/120 26/130/130
f 47/136/136 29/124/124 51/135/135
f 51/135/135 29/124/124 25/125/125
f 51/135/135 25/125/125 55/134/134
f 55/134/134 25/125/125 63/142/142
f 55/134/134 63/142/142 59/133/133
f 59/133/133 63/142/142 62/132/132
f 62/132/132 63/142/142 60/140/140
f 60/140/140 63/142/142 56/139/139
f 56/139/139 63/142/142 64/143/143
f 63/142/142 25/125/125 7/141/141
f 7/141/141 25/125/125 21/126/126
f 7/141/141 21/126/126 17/127/127
f 17/127/127 18/128/128 7/141/141
f 7/141/141 18/128/128 22/129/129
f 7/141/141 22/129/129 8/144/144
f 9/145/145 66/146/146 12/148/148
f 12/148/148 66/146/146 70/147/147
f 77/149/149 74/150/150 75/153/153
f 75/153/153 74/150/150 73/151/151
f 75/153/153 73/151/151 76/152/152
f 41/155/155 67/156/156 43/154/154
f 43/154/154 67/156/156 71/157/157
f 43/154/154 71/157/157 37/161/161
f 37/161/161 71/157/157 13/158/158
f 37/161/161 13/158/158 10/159/159
f 10/159/159 35/160/160 37/161/161
f 57/163/163 62/171/171 61/162/162
f 61/162/162 62/171/171 60/172/172
f 61/162/162 60/172/172 58/170/170
f 58/170/170 60/172/172 56/173/173
f 58/170/170 56/173/173 54/169/169
f 54/169/169 56/173/173 52/174/174
f 54/169/169 52/174/174 50/168/168
f 50/168/168 52/174/174 48/180/180
f 50/168/168 48/181/181 46/167/167
f 46/182/182 48/175/175 47/176/176
f 46/183/183 47/176/176 45/166/166
f 45/166/166 47/176/176 51/177/177
f 45/166/166 51/177/177 49/165/165
f 49/165/165 51/177/177 55/178/178
f 49/165/165 55/178/178 53/164/164
f 53/164/164 55/178/178 59/179/179
f 53/164/164 59/179/179 57/163/163
f 57/163/163 59/179/179 62/171/171
f 61/184/184 58/185/185 57/192/192
f 57/192/192 58/185/185 53/191/191
f 53/191/191 58/185/185 54/186/186
f 53/191/191 54/186/186 49/190/190
f 49/190/190 54/186/186 50/187/187
f 49/190/190 50/187/187 45/189/189
f 45/189/189 50/187/187 46/188/188
f 27/194/194 32/202/202 31/193/193
f 31/193/193 32/202/202 30/203/203
f 31/193/193 30/203/203 28/201/201
f 28/201/201 30/203/203 26/204/204
f 28/201/201 26/204/204 24/200/200
f 24/200/200 26/204/204 22/205/205
f 24/200/200 22/205/205 20/199/199
f 20/199/199 22/205/205 18/211/211
f 20/199/199 18/212/212 16/198/198
f 16/213/213 18/206/206 17/207/207
f 16/214/214 17/207/207 15/197/197
f 15/197/197 17/207/207 21/208/208
f 15/197/197 21/208/208 19/196/196
f 19/196/196 21/208/208 25/209/209
f 19/196/196 25/209/209 23/195/195
f 23/195/195 25/209/209 29/210/210
f 23/195/195 29/210/210 27/194/194
f 27/194/194 29/210/210 32/202/202
f 31/215/215 28/216/216 27/223/223
f 27/223/223 28/216/216 23/222/222
f 23/222/222 28/216/216 24/217/217
f 23/222/222 24/217/217 19/221/221
f 19/221/221 24/217/217 20/218/218
f 19/221/221 20/218/218 15/220/220
f 15/220/220 20/218/218 16/219/219
f 1/225/225 5/226/226 65/224/224
f 65/224/224 5/226/226 69/228/228
f 69/228/228 5/226/226 6/227/227

# 77 vertices
# 228 texture params
# 228 normals
# 154 facets

# 1 groups
