# WaveFront *.obj file (generated by Autodesk ATF)

mtllib Weiche_1.mtl

g Volumenkörper1

v -150.000000 -10.000000 0.000000
v -150.000000 -10.000000 40.000000
v -150.000000 -7.500000 12.300000
v -150.000000 -7.500000 40.000000
v -150.000000 -6.515221 8.650000
v -150.000000 -3.824754 5.978014
v -150.000000 -0.149507 5.000000
v -150.000000 0.149507 5.000000
v -150.000000 3.824754 5.978014
v -150.000000 6.515221 8.650000
v -150.000000 7.500000 12.300000
v -150.000000 7.500000 40.000000
v -150.000000 10.000000 0.000000
v -150.000000 10.000000 40.000000
v -4.018019 -29.729707 0.000000
v -4.018019 -29.729707 40.000000
v -4.018019 29.729707 0.000000
v -4.018019 29.729707 40.000000
v -2.925253 -24.828267 12.300000
v -2.925253 -24.828267 40.000000
v -2.925253 24.828267 12.300000
v -2.925253 24.828267 40.000000
v -2.810816 -23.856971 8.650000
v -2.810816 23.856971 8.650000
v -2.498166 -21.203341 5.978014
v -2.498166 21.203341 5.978014
v -2.071079 -17.578413 5.000000
v -2.071079 17.578413 5.000000
v 3.707389 -21.025646 5.978014
v 3.707389 21.025646 5.978014
v 4.264757 -24.186637 9.803253
v 4.264757 24.186637 9.803253
v 9.371252 -15.015646 5.000000
v 9.371252 15.015646 5.000000
v 12.616197 -27.218220 0.000000
v 12.616197 -27.218220 40.000000
v 12.616197 27.218220 0.000000
v 12.616197 27.218220 40.000000
v 13.236232 -21.208539 12.300000
v 13.236232 -21.208539 40.000000
v 13.236232 21.208539 12.300000
v 13.236232 21.208539 40.000000
v 16.355048 -13.723515 5.978014
v 16.355048 13.723515 5.978014
v 16.700788 -5.862907 5.000000
v 16.700788 5.862907 5.000000
v 18.813865 -15.786707 9.803253
v 18.813865 15.786707 9.803253
v 21.350000 0.000000 5.978014
v 23.588684 -8.280942 12.300000
v 23.588684 -8.280942 40.000000
v 23.588684 8.280942 12.300000
v 23.588684 8.280942 40.000000
v 24.559755 0.000000 9.803253
v 25.283256 -16.147974 0.000000
v 25.283256 -16.147974 40.000000
v 25.283256 16.147974 0.000000
v 25.283256 16.147974 40.000000
v 30.000000 0.000000 0.000000
v 30.000000 0.000000 40.000000
vt 10.508136 -0.573341 0.000000
vt 10.508136 -0.191114 0.000000
vt 10.508136 0.191114 0.000000
vt 10.508136 0.573341 0.000000
vt -4.301068 0.573341 0.000000
vt -4.312591 0.191114 0.000000
vt -4.344072 -0.191114 0.000000
vt -4.387076 -0.573341 0.000000
vt 1.146681 -3.323014 0.000000
vt 0.764454 -3.323014 0.000000
vt 0.382227 -3.323014 0.000000
vt 0.000000 -3.323014 0.000000
vt 0.000000 -4.866717 0.000000
vt 0.000000 7.954123 0.000000
vt 0.000000 6.410420 0.000000
vt 0.000000 4.866717 0.000000
vt 0.000000 3.323014 0.000000
vt 0.382227 3.323014 0.000000
vt 0.764454 3.323014 0.000000
vt 1.146681 3.323014 0.000000
vt 1.146681 4.866717 0.000000
vt 1.146681 -7.954123 0.000000
vt 1.146681 -6.410420 0.000000
vt 1.146681 -4.866717 0.000000
vt 0.254818 -7.182271 0.000000
vt 0.764454 7.182271 0.000000
vt 0.254818 -3.990151 0.000000
vt 0.764454 -3.990151 0.000000
vt 0.254818 -5.586211 0.000000
vt 0.764454 -5.586211 0.000000
vt 0.254818 5.586211 0.000000
vt 0.764454 5.586211 0.000000
vt 0.254818 3.990151 0.000000
vt 0.764454 3.990151 0.000000
vt 0.000000 -6.410420 0.000000
vt 0.000000 -6.410420 0.000000
vt 0.254818 7.182271 0.000000
vt 0.254818 7.182271 0.000000
vt 0.254818 7.182271 0.000000
vt 1.146681 6.410420 0.000000
vt 1.146681 6.410420 0.000000
vt 0.254818 7.182271 0.000000
vt 0.764454 -7.182271 0.000000
vt 0.764454 -7.182271 0.000000
vt 0.764454 -7.182271 0.000000
vt 0.764454 -7.182271 0.000000
vt 11.791677 -0.573341 0.000000
vt 11.748674 -0.191114 0.000000
vt 11.717194 0.191114 0.000000
vt 11.705670 0.573341 0.000000
vt -3.103534 0.573341 0.000000
vt -3.103534 0.191114 0.000000
vt -3.103534 -0.191114 0.000000
vt -3.103534 -0.573341 0.000000
vt -8.750000 -0.014951 0.000000
vt 6.042892 -1.757841 0.000000
vt 7.187125 -1.501565 0.000000
vt 7.920079 -0.586291 0.000000
vt 7.920079 0.586291 0.000000
vt 7.187125 1.501565 0.000000
vt 6.042892 1.757841 0.000000
vt -8.750000 0.014951 0.000000
vt -0.000000 2.770000 0.000000
vt -14.809203 2.770000 0.000000
vt -14.809203 0.000000 0.000000
vt -0.000000 0.000000 0.000000
vt 2.770000 7.267588 0.000000
vt 2.770000 -6.752300 0.000000
vt 2.770000 -5.064225 0.000000
vt 2.770000 -3.376150 0.000000
vt 2.770000 -1.688075 0.000000
vt 2.770000 0.000000 0.000000
vt 0.000000 0.000000 0.000000
vt 0.000000 -1.688075 0.000000
vt 0.000000 -3.376150 0.000000
vt 0.000000 -5.064225 0.000000
vt 0.000000 8.955663 0.000000
vt 0.000000 7.267588 0.000000
vt 2.770000 8.955664 0.000000
vt 2.770000 8.955664 0.000000
vt 0.000000 -6.752301 0.000000
vt 0.000000 -6.752301 0.000000
vt -0.000000 2.770000 0.000000
vt -14.809203 2.770000 0.000000
vt -14.809203 0.000000 0.000000
vt -0.000000 0.000000 0.000000
vt -9.000000 0.750000 0.000000
vt 5.707475 2.482827 0.000000
vt 7.323623 2.120854 0.000000
vt 8.358869 0.828094 0.000000
vt 8.358869 -0.828094 0.000000
vt 7.323623 -2.120854 0.000000
vt 5.707475 -2.482827 0.000000
vt -9.000000 -0.750000 0.000000
vt -9.000000 -1.000000 0.000000
vt 5.598198 -2.972971 0.000000
vt 7.261620 -2.721822 0.000000
vt 8.528325 -1.614797 0.000000
vt 9.000000 0.000000 0.000000
vt 8.528325 1.614797 0.000000
vt 7.261620 2.721822 0.000000
vt 5.598198 2.972971 0.000000
vt -9.000000 1.000000 0.000000
vt -0.000000 0.000000 0.000000
vt -0.000000 1.705134 0.000000
vt -0.000000 3.410268 0.000000
vt -0.000000 5.115402 0.000000
vt -0.000000 6.820536 0.000000
vt -0.000000 8.525670 0.000000
vt -0.000000 10.230804 0.000000
vt -4.000000 10.230804 0.000000
vt -4.000000 8.525670 0.000000
vt -4.000000 6.820536 0.000000
vt -4.000000 5.115402 0.000000
vt -4.000000 3.410268 0.000000
vt -4.000000 1.705134 0.000000
vt -4.000000 0.000000 0.000000
vt 0.000000 0.000000 0.000000
vt 14.730920 0.000000 0.000000
vt 14.730920 4.000000 0.000000
vt 0.000000 4.000000 0.000000
vt 0.250000 1.230000 0.000000
vt 0.250000 4.000000 0.000000
vt 0.000000 4.000000 0.000000
vt 0.000000 0.000000 0.000000
vt 2.000000 0.000000 0.000000
vt 2.000000 4.000000 0.000000
vt 1.750000 4.000000 0.000000
vt 1.750000 1.230000 0.000000
vt 1.651522 0.865000 0.000000
vt 1.382475 0.597801 0.000000
vt 1.014951 0.500000 0.000000
vt 0.985049 0.500000 0.000000
vt 0.617525 0.597801 0.000000
vt 0.348478 0.865000 0.000000
vt 0.000000 0.000000 0.000000
vt 14.730920 0.000000 0.000000
vt 14.730920 4.000000 0.000000
vt 0.000000 4.000000 0.000000
vt 9.000000 1.000000 0.000000
vt -5.598198 2.972971 0.000000
vt -7.261620 2.721822 0.000000
vt -8.528325 1.614797 0.000000
vt -9.000000 0.000000 0.000000
vt -8.528325 -1.614797 0.000000
vt -7.261620 -2.721822 0.000000
vt -5.598198 -2.972971 0.000000
vt 9.000000 -1.000000 0.000000
vn 0.000000 0.000000 0.100000
vn 0.005851 -0.049657 0.086603
vn 0.010133 -0.086008 0.050000
vn 0.011701 -0.099313 0.000000
vn 0.011701 -0.099313 0.000000
vn 0.010133 -0.086008 0.050000
vn 0.005851 -0.049657 0.086603
vn 0.000000 0.000000 0.100000
vn 0.000000 0.000000 0.100000
vn 0.005851 0.049657 0.086603
vn 0.010133 0.086008 0.050000
vn 0.011701 0.099313 0.000000
vn -0.052945 0.084834 0.000000
vn -0.094355 0.033124 0.000000
vn -0.094355 -0.033124 0.000000
vn -0.052945 -0.084834 0.000000
vn 0.011701 -0.099313 0.000000
vn 0.010133 -0.086008 0.050000
vn 0.005851 -0.049657 0.086603
vn 0.000000 0.000000 0.100000
vn 0.000000 0.000000 0.100000
vn 0.000000 0.000000 0.100000
vn 0.000000 0.000000 0.100000
vn 0.000000 0.000000 0.100000
vn -0.093969 0.000000 0.034202
vn -0.050000 0.000000 0.086603
vn -0.016318 0.092542 0.034202
vn -0.008682 0.049240 0.086603
vn -0.071985 0.060402 0.034202
vn -0.038302 0.032139 0.086603
vn -0.071985 -0.060402 0.034202
vn -0.038302 -0.032139 0.086603
vn -0.016318 -0.092542 0.034202
vn -0.008682 -0.049240 0.086603
vn -0.094355 0.033124 0.000000
vn -0.094355 0.033124 0.000000
vn -0.093969 0.000000 0.034202
vn -0.093969 0.000000 0.034202
vn -0.093969 0.000000 0.034202
vn 0.000000 0.000000 0.100000
vn 0.000000 0.000000 0.100000
vn -0.093969 0.000000 0.034202
vn -0.050000 0.000000 0.086603
vn -0.050000 0.000000 0.086603
vn -0.050000 0.000000 0.086603
vn -0.050000 0.000000 0.086603
vn 0.000000 0.000000 0.100000
vn 0.005851 0.049657 0.086603
vn 0.010133 0.086008 0.050000
vn 0.011701 0.099313 0.000000
vn 0.011701 0.099313 0.000000
vn 0.010133 0.086008 0.050000
vn 0.005851 0.049657 0.086603
vn 0.000000 0.000000 0.100000
vn 0.000000 0.000000 0.100000
vn 0.000000 0.000000 0.100000
vn 0.000000 0.000000 0.100000
vn 0.000000 0.000000 0.100000
vn 0.000000 0.000000 0.100000
vn 0.000000 0.000000 0.100000
vn 0.000000 0.000000 0.100000
vn 0.000000 0.000000 0.100000
vn 0.011701 0.099313 0.000000
vn 0.011701 0.099313 0.000000
vn 0.011701 0.099313 0.000000
vn 0.011701 0.099313 0.000000
vn 0.011701 -0.099313 0.000000
vn -0.052945 -0.084834 0.000000
vn -0.094355 -0.033124 0.000000
vn -0.094355 0.033124 0.000000
vn -0.052945 0.084834 0.000000
vn 0.011701 0.099313 0.000000
vn 0.011701 0.099313 0.000000
vn -0.052945 0.084834 0.000000
vn -0.094355 0.033124 0.000000
vn -0.094355 -0.033124 0.000000
vn -0.052945 -0.084834 0.000000
vn 0.011701 -0.099313 0.000000
vn -0.052945 -0.084834 0.000000
vn -0.052945 -0.084834 0.000000
vn -0.052945 -0.084834 0.000000
vn -0.052945 -0.084834 0.000000
vn 0.011701 -0.099313 0.000000
vn 0.011701 -0.099313 0.000000
vn 0.011701 -0.099313 0.000000
vn 0.011701 -0.099313 0.000000
vn 0.000000 0.000000 0.100000
vn 0.000000 0.000000 0.100000
vn 0.000000 0.000000 0.100000
vn 0.000000 0.000000 0.100000
vn 0.000000 0.000000 0.100000
vn 0.000000 0.000000 0.100000
vn 0.000000 0.000000 0.100000
vn 0.000000 0.000000 0.100000
vn 0.000000 0.000000 0.100000
vn 0.000000 0.000000 0.100000
vn 0.000000 0.000000 0.100000
vn 0.000000 0.000000 0.100000
vn 0.000000 0.000000 0.100000
vn 0.000000 0.000000 0.100000
vn 0.000000 0.000000 0.100000
vn 0.000000 0.000000 0.100000
vn 0.000000 0.000000 0.100000
vn -0.013393 -0.099099 0.000000
vn 0.042054 -0.090727 0.000000
vn 0.084278 -0.053827 0.000000
vn 0.100000 0.000000 0.000000
vn 0.084278 0.053827 0.000000
vn 0.042054 0.090727 0.000000
vn -0.013393 0.099099 0.000000
vn -0.013393 0.099099 0.000000
vn 0.042054 0.090727 0.000000
vn 0.084278 0.053827 0.000000
vn 0.100000 0.000000 0.000000
vn 0.084278 -0.053827 0.000000
vn 0.042054 -0.090727 0.000000
vn -0.013393 -0.099099 0.000000
vn -0.013393 -0.099099 0.000000
vn -0.013393 -0.099099 0.000000
vn -0.013393 -0.099099 0.000000
vn -0.013393 -0.099099 0.000000
vn -0.100000 0.000000 0.000000
vn -0.100000 0.000000 0.000000
vn -0.100000 0.000000 0.000000
vn -0.100000 0.000000 0.000000
vn -0.100000 0.000000 0.000000
vn -0.100000 0.000000 0.000000
vn -0.100000 0.000000 0.000000
vn -0.100000 0.000000 0.000000
vn -0.100000 0.000000 0.000000
vn -0.100000 0.000000 0.000000
vn -0.100000 0.000000 0.000000
vn -0.100000 0.000000 0.000000
vn -0.100000 0.000000 0.000000
vn -0.100000 0.000000 0.000000
vn -0.013393 0.099099 0.000000
vn -0.013393 0.099099 0.000000
vn -0.013393 0.099099 0.000000
vn -0.013393 0.099099 0.000000
vn 0.000000 0.000000 -0.100000
vn 0.000000 0.000000 -0.100000
vn 0.000000 0.000000 -0.100000
vn 0.000000 0.000000 -0.100000
vn 0.000000 0.000000 -0.100000
vn 0.000000 0.000000 -0.100000
vn 0.000000 0.000000 -0.100000
vn 0.000000 0.000000 -0.100000
vn 0.000000 0.000000 -0.100000
usemtl 191,191,191
f 8/8/8 28/1/1 9/7/7
f 9/7/7 28/1/1 26/2/2
f 9/7/7 26/2/2 10/6/6
f 10/6/6 26/2/2 24/3/3
f 10/6/6 24/3/3 11/5/5
f 11/5/5 24/3/3 21/4/4
f 33/24/24 27/9/9 29/28/28
f 29/28/28 27/9/9 25/10/10
f 29/28/28 25/10/10 23/11/11
f 29/28/28 23/11/11 31/27/27
f 31/27/27 23/11/11 19/12/12
f 31/27/27 19/12/12 39/13/13
f 31/27/27 39/13/13 47/29/29
f 47/29/29 39/13/13 50/35/35
f 47/29/29 50/36/36 54/25/25
f 54/37/37 50/14/14 52/15/15
f 54/38/38 52/15/15 48/31/31
f 48/31/31 52/15/15 41/16/16
f 48/31/31 41/16/16 32/33/33
f 32/33/33 41/16/16 21/17/17
f 32/33/33 21/17/17 24/18/18
f 32/33/33 24/18/18 30/34/34
f 30/34/34 24/18/18 26/19/19
f 30/34/34 26/19/19 28/20/20
f 28/20/20 34/21/21 30/34/34
f 30/34/34 34/21/21 44/32/32
f 30/34/34 44/32/32 48/31/31
f 48/31/31 44/32/32 54/39/39
f 34/21/21 46/40/40 44/32/32
f 44/32/32 46/41/41 49/26/26
f 44/32/32 49/26/26 54/42/42
f 54/25/25 49/43/43 47/29/29
f 46/22/22 45/23/23 49/44/44
f 49/45/45 45/23/23 43/30/30
f 49/46/46 43/30/30 47/29/29
f 47/29/29 43/30/30 31/27/27
f 45/23/23 33/24/24 43/30/30
f 43/30/30 33/24/24 29/28/28
f 43/30/30 29/28/28 31/27/27
f 32/33/33 30/34/34 48/31/31
f 7/47/47 6/48/48 27/54/54
f 27/54/54 6/48/48 25/53/53
f 25/53/53 6/48/48 5/49/49
f 25/53/53 5/49/49 23/52/52
f 23/52/52 5/49/49 3/50/50
f 23/52/52 3/50/50 19/51/51
f 8/62/62 7/55/55 45/58/58
f 45/58/58 7/55/55 27/56/56
f 45/58/58 27/56/56 33/57/57
f 45/58/58 46/59/59 8/62/62
f 8/62/62 46/59/59 28/61/61
f 28/61/61 46/59/59 34/60/60
f 19/63/63 3/64/64 20/66/66
f 20/66/66 3/64/64 4/65/65
f 21/67/67 41/79/79 22/78/78
f 22/78/78 41/80/80 42/77/77
f 42/81/81 41/68/68 52/69/69
f 42/82/82 52/69/69 53/76/76
f 53/76/76 52/69/69 50/70/70
f 53/76/76 50/70/70 51/75/75
f 51/75/75 50/70/70 39/71/71
f 51/75/75 39/71/71 40/74/74
f 40/74/74 39/71/71 19/72/72
f 40/74/74 19/72/72 20/73/73
f 11/83/83 21/84/84 12/86/86
f 12/86/86 21/84/84 22/85/85
f 12/87/87 22/88/88 14/103/103
f 14/103/103 22/88/88 18/102/102
f 18/102/102 22/88/88 38/101/101
f 38/101/101 22/88/88 42/89/89
f 38/101/101 42/89/89 58/100/100
f 58/100/100 42/89/89 53/90/90
f 58/100/100 53/90/90 60/99/99
f 60/99/99 53/90/90 51/91/91
f 60/99/99 51/91/91 56/98/98
f 56/98/98 51/91/91 40/92/92
f 56/98/98 40/92/92 36/97/97
f 36/97/97 40/92/92 20/93/93
f 36/97/97 20/93/93 16/96/96
f 16/96/96 20/93/93 2/95/95
f 2/95/95 20/93/93 4/94/94
f 16/117/117 15/104/104 36/116/116
f 36/116/116 15/104/104 35/105/105
f 36/116/116 35/105/105 55/106/106
f 36/116/116 55/106/106 56/115/115
f 56/115/115 55/106/106 59/107/107
f 56/115/115 59/107/107 60/114/114
f 60/114/114 59/107/107 57/108/108
f 60/114/114 57/108/108 58/113/113
f 58/113/113 57/108/108 37/109/109
f 58/113/113 37/109/109 38/112/112
f 38/112/112 37/109/109 17/110/110
f 38/112/112 17/110/110 18/111/111
f 1/118/118 15/119/119 2/121/121
f 2/121/121 15/119/119 16/120/120
f 12/123/123 14/124/124 11/122/122
f 11/122/122 14/124/124 13/125/125
f 11/122/122 13/125/125 10/135/135
f 10/135/135 13/125/125 9/134/134
f 9/134/134 13/125/125 8/133/133
f 8/133/133 13/125/125 1/126/126
f 8/133/133 1/126/126 7/132/132
f 7/132/132 1/126/126 6/131/131
f 6/131/131 1/126/126 5/130/130
f 5/130/130 1/126/126 3/129/129
f 3/129/129 1/126/126 2/127/127
f 3/129/129 2/127/127 4/128/128
f 17/136/136 13/137/137 18/139/139
f 18/139/139 13/137/137 14/138/138
f 17/141/141 57/143/143 13/140/140
f 13/140/140 57/143/143 59/144/144
f 13/140/140 59/144/144 1/148/148
f 1/148/148 59/144/144 55/145/145
f 1/148/148 55/145/145 15/147/147
f 15/147/147 55/145/145 35/146/146
f 17/141/141 37/142/142 57/143/143

# 60 vertices
# 148 texture params
# 148 normals
# 116 facets

# 1 groups
